<svg width="79" height="57" viewBox="0 0 79 57" fill="none" xmlns="http://www.w3.org/2000/svg">
    <path d="M48.6487 0L0 33.6822L25.8446 53L75 22.785L48.6487 0Z" fill="#BBC8FF"/>
    <path d="M2 39C2.28668 41.2935 10.0792 45.1802 12 47C14.2815 49.1614 16.7189 50.9723 19 53C24.4309 57.8275 36.4115 46.7145 40.4444 44C48.3343 38.6895 55.7769 30.5559 64.7778 27.2222C65.9943 26.7717 73.6766 25.1828 72.7778 23C71.4509 19.7775 68.2161 17.5702 65.7778 15.2222C62.9124 12.463 57.9202 9.2001 54.2222 7.77778C51.4396 6.70754 50.3735 4 47 4C42.9625 4 37.5921 8.24426 34.2222 10.2222C29.9938 12.7041 25.5981 14.6017 22 18C19.9419 19.9438 16.4587 21.4118 14 22.7778C11.8101 23.9944 10.9582 26.5539 9 27.7778C6.63726 29.2545 3.20768 32.5846 2 35" stroke="black" stroke-width="3" stroke-linecap="round"/>
    <path d="M21 36.0005C21.1334 33.4652 21.3602 29.9899 22.0556 27.556C22.2313 26.941 26.0082 30.0353 26.9444 30.4449C32.0421 32.6751 28.771 25.0005 32.5 25.0005C34.158 25.0005 35.5766 22.6691 37 23.2227C38.4462 23.7851 40.679 24.8684 41.7778 23.0005C44.207 18.8708 45.3907 19.0005 50 19.0005" stroke="black" stroke-width="3" stroke-linecap="round"/>
</svg>

