<svg width="80" height="80" viewBox="0 0 80 80" fill="none" xmlns="http://www.w3.org/2000/svg">
<path d="M37.0224 27.0076C37.6251 26.8169 39.982 24.9703 40.6439 25.0004C41.1379 25.0204 42.6595 27.3689 43.1139 27.5094C51.5614 30.1589 57.2371 34.6551 65.2597 37.8666C66.8899 38.519 68.5794 39.2516 69.4291 40.4057C70.0713 41.2688 70.1602 42.2724 70.2294 43.2459C70.7431 50.3314 71 57.4168 71 64.5023C71 64.9338 70.9901 65.3955 70.6344 65.7568C70.4072 65.9976 70.0515 66.1582 69.6958 66.3188C62.4636 69.6407 54.9054 72.6315 47.1001 75.2509C46.0627 75.6021 44.9957 75.9434 43.8496 75.9935C42.4762 76.0538 41.1523 75.6824 39.8877 75.3011C29.6618 72.2802 19.7521 68.7375 10.2771 64.7231C9.56573 64.422 8.81484 64.0808 8.47892 63.5589C8.26156 63.2177 8.2418 62.8263 8.23192 62.4449C8.10348 58.2398 7.97504 54.0347 7.8466 49.8296C7.76756 47.1399 5.62357 43.1857 8.47891 42.0617C11.1367 41.0079 17.5542 36.1705 20.8838 35.0364C26.2981 33.1999 29.7067 29.7173 35.2099 28.0112L37.0224 27.0076Z" fill="#FD9F68"/>
<path d="M73 43.3678C66.0061 36.1287 56.7307 33.9437 47.4553 28.4505C46.7778 28.0523 39.4253 26 39.4253 26C38.5984 27.1129 20.5258 35.659 11.7784 39.9984C10.8519 40.4579 9.93532 40.7029 9.04862 40.7948L6 43.2045C6 43.2045 38.3692 58.9795 39.9135 58.9999C41.4577 59.0203 42.5735 56.4779 43.261 55.998C43.9484 55.5181 74.2553 44.9913 72.741 43.6231L72.99 43.3678H73Z" fill="black" fill-opacity="0.2"/>
<path d="M75.0546 60.3299C75.0546 60.1899 75.0546 60.0499 75.0546 59.9199C75.0546 59.8599 75.0446 59.8099 75.0346 59.7499C75.0246 59.6099 75.0146 59.4799 75.0146 59.3399C75.0146 59.1799 75.0146 59.0199 75.0146 58.8499C75.0146 58.6799 74.9946 58.5099 74.9946 58.3399C74.9946 58.2699 74.9946 58.1999 74.9946 58.1299C74.9646 58.1199 74.9346 58.1099 74.9046 58.0999C74.8846 57.8099 74.8746 57.5299 74.8546 57.2399C74.7446 52.7699 74.4846 48.2999 74.2946 43.8399C74.4346 43.7499 74.5846 43.6599 74.7246 43.5699C74.7246 43.4499 74.7246 43.3299 74.7246 43.2099C74.7246 43.0999 74.7246 42.9999 74.7346 42.8899C74.7346 42.8499 74.7346 42.8099 74.7446 42.7699C74.7446 42.7299 74.7446 42.6899 74.7446 42.6499C74.7446 42.6099 74.7446 42.5699 74.7446 42.5299C74.7446 42.4899 74.7446 42.4499 74.7446 42.4099C74.7446 42.3499 74.7446 42.2899 74.7446 42.2199C74.7446 42.2199 74.7446 42.2199 74.7446 42.2099C74.7446 42.2099 74.7446 42.1999 74.7446 42.1899C74.7446 42.1199 74.7446 42.0599 74.7346 41.9899C74.7346 41.9699 74.7346 41.9499 74.7346 41.9299C74.7246 41.8699 74.7146 41.8199 74.6946 41.7599C74.6746 41.6999 74.6446 41.6399 74.6246 41.5899C74.6046 41.5199 74.5746 41.4499 74.5446 41.3899C74.5246 41.3499 74.4946 41.2999 74.4746 41.2599C74.4446 41.2099 74.4046 41.1699 74.3646 41.1199C74.3046 41.0499 74.2446 40.9899 74.1846 40.9299C74.1446 40.9099 74.1146 40.8899 74.0746 40.8699C73.9946 40.8699 73.9146 40.8999 73.8346 40.9199C73.7946 40.8799 73.7546 40.8299 73.7046 40.7899C73.6546 40.7599 73.6046 40.7299 73.5546 40.6999C73.5046 40.6599 73.4646 40.6199 73.4146 40.5899C70.9346 39.2699 68.4846 37.8999 65.9646 36.6699C60.4946 33.9099 55.0646 30.9199 49.7146 27.9999C47.9246 27.2599 43.8146 24.3799 41.3646 23.6399C41.3646 23.6399 41.3446 23.6399 41.3446 23.6299C41.2746 23.5899 41.1946 23.5599 41.1146 23.5199C41.0646 23.4999 41.0146 23.4799 40.9546 23.4699C40.9046 23.4599 40.8446 23.4499 40.7846 23.4399C40.6846 23.4399 40.5846 23.4399 40.4946 23.4399C40.4646 23.4399 40.4446 23.4399 40.4146 23.4399C40.3646 23.4599 40.3246 23.4699 40.2746 23.4899C40.1646 23.4899 40.0646 23.4999 39.9746 23.5299C39.8646 23.5699 39.7746 23.6099 39.6846 23.6599C39.6846 23.6699 39.6846 23.6899 39.6846 23.6999C39.6646 23.7099 39.6446 23.7199 39.6246 23.7299C39.6246 23.7299 39.6246 23.7299 39.6246 23.7399C32.2846 27.5299 32.1346 27.2399 24.8846 31.1199H24.8946C18.8646 34.2799 12.8946 37.5799 6.84456 40.7799C6.84456 40.7799 6.84456 40.7799 6.83456 40.7799C6.79456 40.7999 6.75456 40.8199 6.71456 40.8399C6.60456 40.9199 6.48456 40.9999 6.37456 41.0799C6.37456 41.0799 6.37456 41.0799 6.38456 41.0699C6.38456 41.0699 6.36456 41.0799 6.35456 41.0899C6.34456 41.0999 6.32456 41.1099 6.31456 41.1199C6.31456 41.1199 6.30456 41.1299 6.29456 41.1399C6.28456 41.1499 6.26456 41.1599 6.25456 41.1699C6.25456 41.1699 6.25456 41.1699 6.24456 41.1699C6.20456 41.1999 6.16456 41.2299 6.12456 41.2599C6.10456 41.2799 6.09456 41.2999 6.07456 41.3199C6.01456 41.3999 5.96456 41.4799 5.91456 41.5599C5.88456 41.6099 5.86456 41.6599 5.84456 41.7099C5.82456 41.7599 5.80456 41.8099 5.79456 41.8699C5.77456 41.9499 5.76456 42.0299 5.75456 42.1199C5.75456 42.1199 5.75456 42.1399 5.75456 42.1499C5.74456 42.2499 5.73456 42.3499 5.73456 42.4499C5.73456 42.5799 5.73456 42.6999 5.73456 42.8299C5.73456 43.0799 5.73456 43.3299 5.73456 43.5699C5.73456 43.5699 5.75456 43.5699 5.76456 43.5799C5.71456 45.6499 5.92456 47.7299 5.88456 49.7999C5.90456 52.1799 5.95456 54.5599 5.94456 56.9399C5.94456 57.7399 5.95456 58.5399 5.90456 59.3399C5.92456 59.9799 5.30456 61.0199 6.74456 61.2599C8.03456 62.6299 10.2246 63.1099 11.8246 64.0399C18.1546 66.8799 24.3846 69.9299 30.5046 73.1899C33.1446 74.5499 35.5546 76.3199 38.1846 77.6899C38.1846 77.9199 38.1846 78.1399 38.1846 78.3699C38.2246 79.0399 39.3846 79.2499 40.2046 79.0499C40.2046 79.0499 40.2046 79.0499 40.2146 79.0499C41.0546 79.0499 41.8746 78.2199 42.6646 77.8799C44.0346 77.1499 45.4246 76.4599 46.8346 75.7999C50.9746 73.8999 55.1546 72.0399 58.8346 69.3099C62.3946 66.7199 66.4946 65.0399 70.3846 63.0199C70.7946 62.8399 71.1946 62.6599 71.5946 62.4699C71.6046 62.4599 71.6246 62.4399 71.6346 62.4299C71.7346 62.3499 71.8546 62.3199 71.9646 62.2699C72.0246 62.2399 72.0946 62.2199 72.1546 62.1899C72.3446 62.0999 72.5246 61.9999 72.7046 61.8999C72.7146 61.8999 72.7246 61.9199 72.7446 61.9199C72.7646 61.9199 72.7846 61.9099 72.8146 61.8999C73.0146 61.8499 73.2246 61.7899 73.4246 61.7399C73.6546 61.6799 73.8846 61.6199 74.1146 61.5599C74.2246 61.5299 74.3246 61.4999 74.4246 61.4699C74.5446 61.4299 74.6646 61.3899 74.7846 61.3399C74.8346 61.3199 74.8946 61.2999 74.9446 61.2699C74.9446 61.2699 74.9646 61.2499 74.9646 61.2399C74.9646 61.2299 74.9846 61.2199 74.9846 61.2099C74.9846 61.2099 74.9846 61.1899 74.9946 61.1799C75.0146 61.1499 75.0346 61.1199 75.0546 61.0999C75.0546 60.9099 75.0446 60.7099 75.0346 60.5199C75.0546 60.4699 75.0746 60.4199 75.0846 60.3699V60.3099L75.0546 60.3299ZM29.1446 32.1599C33.9546 29.5699 29.3746 31.9799 34.2346 29.5599C35.4146 28.7999 38.4146 27.6499 40.4546 26.4899C40.5546 26.5599 40.6546 26.6299 40.7546 26.6999C40.8046 26.7199 40.8446 26.7399 40.8846 26.7699C40.8846 26.7699 40.8846 26.7699 40.8946 26.7699C47.2546 30.1099 53.5246 33.4199 59.8546 36.6799C63.6346 38.6199 67.3946 40.5799 71.1346 42.5699C68.6746 44.0899 66.1246 45.4599 63.5146 46.7299C58.2946 49.1999 53.1046 51.7299 47.8646 54.1499C45.8946 54.9599 43.9446 55.7899 42.0146 56.6999C41.3646 57.0099 40.3746 57.3299 39.7446 57.8099C39.6046 57.8099 39.4646 57.8399 39.3446 57.8699C37.7046 57.0499 36.0446 56.2799 34.3546 55.5299C25.9646 51.0999 16.9546 47.7799 8.73456 42.9999C10.8246 41.9799 13.3646 40.2499 14.6146 39.7399C19.3846 37.1299 24.2646 34.6399 29.1346 32.1699L29.1446 32.1599ZM37.6546 74.2899C28.6346 68.4299 18.5946 64.4099 9.01456 59.6199C8.95456 59.3399 8.83456 59.1299 8.68456 58.9599C8.70456 58.5099 8.71456 58.0599 8.71456 57.6099C8.76456 53.8099 8.61456 50.0099 8.56456 46.1999C9.24456 46.5699 9.95456 46.8899 10.6146 47.2399C19.8446 51.8599 29.2846 55.9799 38.5246 60.5899C38.3746 65.2399 38.1746 69.8999 38.1346 74.5599C37.9746 74.4699 37.8046 74.3899 37.6546 74.2899ZM71.7746 59.2699C70.3246 60.0499 68.7846 60.6399 67.3246 61.3999C65.0046 62.8099 62.4446 63.7599 60.1046 65.1299C57.5946 66.6699 55.2846 68.5299 52.6846 69.9299C49.4746 71.6199 46.1146 72.9899 42.8746 74.6399C42.4146 74.9499 41.6546 75.2699 40.9146 75.6399C40.9146 75.1699 40.9246 74.7099 40.9146 74.2399C40.9846 69.8199 41.2146 65.3899 41.2946 60.9699C41.5946 60.6799 41.7846 60.2699 41.7846 59.8599C42.1346 59.6999 42.4846 59.5099 42.8046 59.3899C44.8146 58.4499 46.8446 57.5599 48.8946 56.7299C56.0246 53.3899 63.1846 50.1099 70.1546 46.4299C70.6346 46.1799 71.0946 45.8999 71.5446 45.6199C71.6746 50.0999 72.0046 54.5899 72.1546 59.0799C72.0246 59.1499 71.9046 59.2199 71.7746 59.2699Z" fill="black"/>
<path d="M14.6446 28.4299H14.6346C14.6346 28.4299 14.5446 28.4799 14.5046 28.5099C14.5046 28.5099 14.5146 28.5099 14.5246 28.4999C14.5646 28.4799 14.6046 28.4599 14.6446 28.4399V28.4299Z" fill="black"/>
<path d="M7.8364 16.2345C15.0664 12.4845 22.8964 10.0445 30.6864 7.66453C32.9764 6.96453 35.2864 6.26453 37.6764 6.06453C40.5464 5.82453 43.4264 6.30453 46.2864 6.67453C52.5264 7.47453 58.8264 7.70453 65.1164 7.56453C67.0364 7.52453 69.3964 7.71453 70.1664 9.46453C70.7164 10.7045 70.0964 12.2045 69.0664 13.0945C68.0364 13.9845 66.6964 14.3845 65.3964 14.7545C47.3364 19.8545 28.1664 22.8545 9.3564 22.5345C7.7464 22.5045 5.9564 22.7245 5.2264 21.0145C4.3964 19.0445 6.2964 17.0345 7.8264 16.2345H7.8364Z" fill="#FD9F68"/>
<path d="M71.8746 11.04C71.8646 10.98 71.8546 10.92 71.8346 10.87C71.8246 10.8 71.8146 10.73 71.7946 10.67C71.7846 10.63 71.7646 10.58 71.7446 10.54C71.7246 10.49 71.6946 10.44 71.6646 10.39C71.6246 10.32 71.5746 10.25 71.5246 10.19C71.4946 10.17 71.4646 10.14 71.4346 10.11C71.4046 10.11 71.3846 10.11 71.3546 10.11C71.3246 9.56003 71.3146 9.01003 71.2846 8.45003C71.3846 8.38003 71.4746 8.30003 71.5546 8.20003C71.5346 8.16003 71.5146 8.11003 71.4846 8.07003C71.4346 7.95003 71.3746 7.84003 71.3246 7.72003C71.2846 7.62003 71.2346 7.53003 71.2046 7.43003C71.2046 7.43003 71.2046 7.43003 71.2046 7.42003C71.1946 7.29003 71.1846 7.16003 71.1646 7.04003C71.2746 6.96003 71.2046 6.92003 71.0246 6.91003C70.9246 6.24003 70.3546 5.63003 69.5046 5.86003C66.7046 5.72003 63.8946 5.53003 61.0846 5.49003C54.9546 5.33003 48.7746 4.94003 42.6946 4.58003C41.5746 4.64003 39.4546 4.37003 37.3646 4.22003C37.0846 4.19003 36.8046 4.14003 36.5346 4.11003C34.8746 4.13003 33.0246 3.74003 31.5646 4.39003C30.5746 4.83003 30.6846 4.77003 30.7846 4.73003C25.1946 7.25003 19.4546 9.57003 13.8246 11.9C11.9446 12.93 6.23457 14.5 4.61457 16.11C3.55457 15.96 2.52457 17.4 3.23457 18.36C3.22457 18.37 3.20457 18.38 3.19457 18.39C3.36457 19.99 3.38457 21.63 3.70457 23.2C3.70457 23.21 3.69457 23.22 3.68457 23.23C3.68457 23.23 3.68457 23.25 3.67457 23.25C3.67457 23.26 3.66457 23.28 3.65457 23.29C3.66457 23.46 3.72457 23.62 3.82457 23.77C3.82457 23.8 3.83457 23.83 3.84457 23.86C3.85457 23.89 3.89457 23.9 3.95457 23.91C4.03457 23.99 4.12457 24.06 4.24457 24.13C5.68457 24.71 7.41457 24.48 8.98457 24.44C18.4046 24.05 27.7946 23.18 37.2246 22.8C37.3946 22.94 37.5846 23.02 37.7846 23.06C38.4746 23.18 39.2946 22.79 39.9646 22.64C41.9446 22.07 60.0446 17.08 66.9846 14.71C68.5646 14.17 70.0546 13.36 71.6046 12.74C71.6246 12.63 71.6446 12.52 71.6646 12.41C71.6846 12.31 71.7046 12.21 71.7246 12.11C71.7246 12.07 71.7446 12.04 71.7546 12C71.7546 11.96 71.7646 11.93 71.7746 11.89C71.7746 11.85 71.7846 11.81 71.7946 11.78C71.7946 11.74 71.8046 11.7 71.8146 11.66C71.8146 11.6 71.8346 11.54 71.8346 11.48C71.8346 11.48 71.8346 11.48 71.8346 11.47C71.8346 11.41 71.8446 11.34 71.8546 11.28C71.8546 11.26 71.8546 11.24 71.8546 11.22C71.8546 11.17 71.8546 11.11 71.8446 11.06L71.8746 11.04ZM36.2746 20.45C34.6746 20.52 33.0846 20.63 31.4846 20.76C23.1346 20.93 14.7046 22.15 6.35457 22.04C6.22457 21.05 6.19457 20.04 6.08457 19.04C7.27457 18.97 8.51457 18.68 9.64457 18.66C16.0546 17.87 22.4746 17.3 28.9046 16.94C31.5146 16.76 34.1246 16.96 36.7246 16.83C36.5946 18.03 36.3446 19.24 36.2746 20.45ZM35.1946 14.35C27.5246 14.13 16.9246 15.48 9.27457 16.28C14.2146 14.16 22.0846 11.6 26.9846 9.44003C28.9746 8.56003 30.9646 7.72003 32.9546 6.85003C33.0346 6.90003 33.1146 6.95003 33.2046 7.00003C33.2346 7.01003 33.2546 7.03003 33.2846 7.04003C33.3446 7.05003 33.3946 7.06003 33.4546 7.07003C33.4546 7.07003 33.4646 7.07003 33.4746 7.07003C33.4946 7.07003 33.5146 7.07003 33.5246 7.08003C33.5346 7.08003 33.5446 7.08003 33.5546 7.08003C33.5746 7.08003 33.5946 7.08003 33.6146 7.09003C33.6146 7.09003 33.6146 7.09003 33.6046 7.09003C33.6046 7.09003 33.6046 7.09003 33.6146 7.09003C33.6246 7.09003 33.6446 7.09003 33.6546 7.09003C33.6546 7.09003 33.6446 7.09003 33.6346 7.09003C33.7846 7.12003 33.9446 7.15003 34.0946 7.17003C34.1446 7.17003 34.1946 7.17003 34.2446 7.17003C41.0446 7.46003 62.2446 7.55003 65.5446 7.60003C65.5846 7.60003 65.5846 7.65003 65.5446 7.66003C57.4046 8.84003 46.0446 12.36 39.4346 14.31C39.2346 14.16 38.9646 14.07 38.6246 14.09C37.4946 14.21 36.3346 14.34 35.1946 14.32V14.35ZM60.9146 13.95C55.7546 15.46 41.6046 19.42 39.7046 19.97C39.5246 20.02 39.3246 20.07 39.1146 20.12C39.2346 19.05 39.4446 17.98 39.4746 16.91C40.8446 16.71 42.2146 15.99 43.5146 15.7C49.3146 13.72 55.1946 11.95 61.1246 10.38C63.5646 9.70003 66.0946 9.39003 68.5346 8.74003C68.5546 9.55003 68.5746 10.36 68.6646 11.16C66.1346 12.23 63.5446 13.14 60.9246 13.94L60.9146 13.95Z" fill="black"/>
<path d="M30.8146 4.71999C30.8946 4.67999 30.8546 4.69999 30.8146 4.71999Z" fill="black"/>
<path d="M29.3945 49.04C28.6745 49.04 28.0345 48.52 27.9145 47.78C27.7845 46.96 28.3345 46.19 29.1545 46.06C31.7945 45.63 33.9145 45.02 35.5445 44.23C34.4145 42.48 33.9145 40.32 34.3245 38.23C34.6545 36.56 35.5145 35.32 36.7545 34.75C38.5045 33.94 40.7245 34.69 41.8145 36.46C42.6145 37.77 42.7645 39.52 42.2145 41.24C41.8045 42.53 41.1145 43.61 40.2545 44.51C40.3345 44.54 40.4045 44.57 40.4845 44.6C42.5445 45.39 45.1745 44.91 48.2945 43.17C48.8545 42.86 49.3545 42.54 49.8045 42.22C48.9245 41.86 48.1645 41.33 47.5745 40.64C46.6345 39.55 46.2245 38.02 46.4545 36.54C46.6645 35.23 47.3545 34.16 48.4045 33.53C49.7545 32.71 51.4145 32.79 52.8645 33.74C54.6345 34.9 55.6745 37.08 55.3945 39.04C55.3945 39.04 55.3945 39.05 55.3945 39.06C55.8645 38.8 56.2745 38.48 56.6045 38.1C57.5545 37.02 58.0245 35.34 58.0645 32.84C58.0645 32.39 58.0645 31.93 58.0645 31.48C58.0645 29.64 58.0645 27.73 58.6445 25.85C59.4145 23.38 61.6445 20.73 64.7245 20.72C65.6745 20.72 66.6245 21.06 67.4145 21.65C67.6445 21.59 67.8745 21.53 68.1045 21.48C68.4445 21.4 68.7945 21.32 69.1245 21.22C70.6445 20.76 72.2045 19.47 72.2345 17.92C72.2545 17.09 72.9445 16.43 73.7645 16.45C74.5945 16.47 75.2545 17.15 75.2345 17.98C75.1645 21.1 72.4745 23.33 70.0045 24.09C69.7645 24.16 69.5145 24.23 69.2645 24.29C69.6145 25.52 69.3945 26.76 68.6245 27.71C68.0845 28.38 67.3645 28.81 66.5945 28.91C65.4345 29.05 64.3745 28.46 63.8345 27.35C63.3045 26.26 63.3645 24.89 63.9345 23.86C62.7945 24.28 61.8845 25.51 61.5045 26.74C61.0545 28.19 61.0545 29.78 61.0645 31.47C61.0645 31.95 61.0645 32.42 61.0645 32.9C61.0245 34.95 60.7545 37.92 58.8545 40.08C57.6845 41.41 55.9745 42.33 54.0445 42.65C53.9245 42.67 53.8145 42.69 53.6945 42.7C52.7545 43.82 51.4345 44.86 49.7545 45.8C45.8245 47.99 42.3445 48.53 39.4145 47.41C38.7945 47.18 38.2245 46.86 37.6945 46.49C34.7245 48.2 31.2245 48.77 29.6445 49.03C29.5645 49.04 29.4845 49.05 29.4045 49.05L29.3945 49.04ZM38.2545 37.41C38.1645 37.41 38.0845 37.43 38.0145 37.46C37.6845 37.61 37.3945 38.13 37.2645 38.8C37.0145 40.07 37.3245 41.41 38.0045 42.51C38.6445 41.86 39.0945 41.13 39.3445 40.32C39.6245 39.44 39.5845 38.58 39.2445 38.02C39.0245 37.66 38.5845 37.42 38.2445 37.42L38.2545 37.41ZM50.4045 35.96C50.2545 35.96 50.0945 36 49.9445 36.09C49.5645 36.32 49.4445 36.77 49.4045 37.01C49.3045 37.61 49.4745 38.26 49.8345 38.68C50.3245 39.25 51.1345 39.62 52.0645 39.73C52.2445 39.36 52.3545 38.99 52.4045 38.62C52.5245 37.8 51.9945 36.78 51.1945 36.24C50.9745 36.1 50.6945 35.96 50.3945 35.96H50.4045Z" fill="#231F20"/>
</svg>
