<svg width="74" height="77" viewBox="0 0 74 77" fill="none" xmlns="http://www.w3.org/2000/svg">
    <path d="M4 62.6097V32.4805C4 31.2456 4.57039 30.0799 5.54547 29.3221L38.7497 3.51732C39.9462 2.58744 41.5655 2.41355 42.9322 3.06817L70.728 16.3819C72.1164 17.047 73 18.4499 73 19.9894V46.2352C73 47.3168 72.562 48.3523 71.7859 49.1055L46.6564 73.4955C45.6891 74.4344 44.3139 74.8229 42.9983 74.5289L7.12769 66.5135C5.29974 66.105 4 64.4828 4 62.6097Z" fill="#FFA667"/>
    <path d="M40.438 2C29.9552 7.53849 20.3973 14.9555 10.8761 21.9646C7.79667 24.2315 4.45403 26.7502 2.17505 29.8853C-0.0926794 33.0049 20.3899 36.6316 22.1712 37.0465C28.5068 38.522 35.8174 42.2396 42.2755 42.9599C46.3839 43.4182 47.4809 39.8503 50.1658 37.155C54.9255 32.3771 60.2837 28.6368 65.5142 24.4601C67.574 22.8154 69.5123 20.2366 71.9995 19.5233C72.1053 19.4929 55.6934 8.59615 53.7327 7.53366C50.0301 5.52722 45.9475 3.78883 42.3836 2" stroke="black" stroke-width="3" stroke-linecap="round"/>
    <path d="M45 44C42.1387 47.4414 43.1877 54.7115 43.1877 58.9618C43.1877 64.3079 43.1877 69.6539 43.1877 75" stroke="black" stroke-width="3" stroke-linecap="round"/>
    <path d="M71.4982 19C71.4982 25.8723 72.7606 33.9194 71.2808 40.6071C70.7482 43.0143 70.656 45.0277 70.5202 47.4821C70.3393 50.7523 64.5994 52.796 62.371 54.1389C58.2679 56.6114 52.5149 59.9539 50.2014 64.1786C49.5678 65.3356 43.9762 74 42.1607 74C38.9386 74 35.0628 71.2358 32.1643 70.0714C29.0994 68.8402 25.5756 69.0264 22.6025 67.8889C17.46 65.9214 5.97791 69.2656 5.97791 62.7599C5.97791 52.3147 8.25573 37.6487 5 27.8393" stroke="black" stroke-width="3" stroke-linecap="round"/>
    <path d="M36.2962 20.9576C35.3983 16.8049 15.2702 6.35929 13.2337 8.21977C5.07282 15.6755 21.4921 22.8406 26.9742 22.8406C30.9701 22.8406 33.4747 17.5622 36.3501 14.9763C38.8516 12.7266 41.5316 9.80299 45.0254 9.99198C50.2517 10.2747 53.7395 13.4437 48.1507 16.7486C41.1835 20.8685 36.7409 18.5265 29.5068 18.9638C27.7889 19.0677 30.4767 21.1125 30.4767 22.4529C30.4767 25.0181 30.3461 26.843 27.998 28.3787C26.8799 29.11 25.1773 29.0417 23.9028 28.9325C22.0236 28.7716 27.3976 25.173 27.7825 24.9451C33.8849 21.3307 33.2052 24.8011 38.6671 27.2711C40.9196 28.2897 43.8674 29.4228 44.0555 25.9419C44.3254 20.949 32.0996 21.9642 29.5068 17.967" stroke="black" stroke-width="3" stroke-linecap="round"/>
</svg>
