<svg width="327" height="200" viewBox="0 0 327 200" fill="none" xmlns="http://www.w3.org/2000/svg">
<g clip-path="url(#clip0_70_2546)">
<path d="M160.867 40.1183C162.084 39.5738 163.36 39.0174 164.696 39.1002C165.677 39.1713 166.598 39.5856 167.508 39.9999C184.454 47.7541 201.436 55.5319 217.543 64.9198C220.805 66.8258 224.196 68.9685 225.91 72.3425C227.198 74.8759 227.363 77.8118 227.505 80.653C228.533 101.37 229.053 122.111 229.053 142.864C229.053 144.131 229.029 145.48 228.32 146.534C227.859 147.232 227.139 147.718 226.441 148.191C211.93 157.91 196.768 166.659 181.086 174.342C179.018 175.36 176.868 176.378 174.563 176.52C171.81 176.686 169.151 175.597 166.622 174.508C146.095 165.653 126.219 155.306 107.193 143.562C105.763 142.674 104.25 141.692 103.577 140.153C103.139 139.147 103.104 138.01 103.08 136.897C102.82 124.597 102.572 112.285 102.312 99.9851C102.147 92.1244 98.9205 77.871 102.288 70.5904C105.574 63.4637 121.291 58.9651 127.968 55.674C138.839 50.3112 149.806 45.126 160.867 40.142V40.1183Z" fill="#FF7667"/>
<path d="M233 139.952C233 139.952 233 139.869 233 139.821C233 139.537 233 139.265 233 138.981C232.988 138.862 232.976 138.756 232.965 138.637C232.941 138.365 232.929 138.093 232.917 137.821C232.917 137.489 232.917 137.17 232.917 136.838C232.905 136.495 232.882 136.151 232.87 135.808C232.87 135.666 232.87 135.536 232.87 135.394C232.799 132.434 232.693 129.486 232.598 126.527C232.362 109.337 231.736 92.1481 231.357 74.9587C231.357 74.9587 231.357 74.9587 231.369 74.9587C231.369 74.864 231.369 74.7575 231.369 74.6628C231.369 74.4023 231.369 74.1419 231.381 73.8814C231.381 73.6683 231.393 73.4552 231.405 73.2422C231.405 73.2066 231.405 73.1711 231.405 73.1356C231.405 73.0883 231.405 73.0409 231.417 72.9935C231.417 72.9462 231.417 72.9107 231.417 72.8633V72.7568C231.417 72.6739 231.417 72.591 231.417 72.5082C231.417 72.4727 231.417 72.449 231.417 72.4135C231.417 72.3543 231.417 72.3069 231.417 72.2477C231.417 72.1175 231.417 71.9991 231.405 71.8689C231.405 71.8689 231.405 71.8571 231.405 71.8452C231.405 71.8452 231.405 71.8215 231.405 71.8097C231.405 71.7268 231.405 71.644 231.393 71.5611C231.393 71.5137 231.393 71.4546 231.393 71.4072C231.393 71.3717 231.393 71.3243 231.369 71.2888C231.369 71.2296 231.346 71.1823 231.334 71.1231C231.322 71.0639 231.31 71.0047 231.287 70.9455C231.263 70.8626 231.227 70.7916 231.192 70.7087C231.18 70.6732 231.157 70.6377 231.145 70.5904C231.133 70.543 231.109 70.4956 231.086 70.4483C231.05 70.3536 231.027 70.2707 230.991 70.1878C230.944 70.105 230.897 70.0103 230.837 69.9274C230.814 69.9037 230.79 69.8682 230.778 69.8445C230.731 69.7735 230.684 69.7143 230.625 69.6433C230.577 69.5959 230.53 69.5486 230.483 69.5012C230.412 69.4184 230.341 69.3473 230.258 69.2645C230.258 69.2645 230.235 69.2645 230.235 69.2526C230.14 69.2053 230.046 69.1461 229.963 69.075C229.868 69.004 229.774 68.9211 229.679 68.8501C224.681 66.1865 219.729 63.4044 214.636 60.9184C209.212 58.1837 203.811 55.3307 198.446 52.4302C201.566 41.1719 192.277 28.8008 176.052 40.2249C179.609 11.5523 135.306 22.7277 142.952 44.0131C140.116 45.3982 136.76 47.1148 131.678 49.8376H131.702C120.286 55.8397 108.977 62.0667 97.5379 68.1516C97.0652 68.3884 96.5807 68.5897 96.1198 68.8501C95.8362 69.0158 95.5526 69.1934 95.2571 69.3592C95.1744 69.4065 95.0917 69.4539 94.9972 69.4894C94.8553 69.5959 94.7017 69.7025 94.5599 69.809C94.4772 69.8682 94.3945 69.9274 94.3117 69.9866C94.3117 69.9866 94.3117 69.9866 94.3236 69.9866C94.3236 69.9866 94.3236 69.9866 94.3354 69.9866C94.3117 69.9984 94.2999 70.0103 94.2763 70.0339C94.2763 70.0339 94.2763 70.0339 94.2645 70.0339C94.2645 70.0339 94.2645 70.034 94.2527 70.0458C94.2527 70.0458 94.2054 70.0813 94.1818 70.105C94.1699 70.105 94.1581 70.1287 94.1463 70.1405C94.1227 70.1642 94.0872 70.1878 94.0636 70.1997H94.0518C93.969 70.2589 93.8863 70.3299 93.8036 70.3891C93.7682 70.4246 93.7445 70.472 93.7091 70.5075C93.5909 70.6614 93.4727 70.8271 93.3782 70.9929C93.3191 71.0876 93.2718 71.1941 93.2364 71.3007C93.2009 71.4072 93.1655 71.5137 93.1418 71.6203C93.1064 71.786 93.0827 71.9518 93.0591 72.1175C93.0591 72.1293 93.0591 72.153 93.0591 72.1649C93.0355 72.3661 93.0237 72.5674 93.0118 72.7686C93.0118 73.0291 93.0118 73.2777 93.0118 73.5381C93.0118 74.0353 93.0355 74.5444 93.0118 75.0416C93.0237 75.0416 93.0355 75.0416 93.0473 75.0653C92.9055 83.0088 93.3782 90.9524 93.3073 98.9078C93.3545 107.798 93.4491 116.677 93.4373 125.568C93.4373 128.563 93.4727 131.546 93.3545 134.541C93.4018 136.897 92.1964 140.697 94.9144 141.668C97.5024 144.533 102.017 145.504 105.29 147.41C118.065 153.14 130.638 159.319 142.987 165.913C148.329 168.672 153.174 172.247 158.492 175.005C158.492 175.088 158.492 175.183 158.492 175.265C158.563 177.503 160.702 178.272 162.332 177.728C162.415 177.728 162.51 177.752 162.592 177.752C164.282 177.752 165.948 176.07 167.532 175.384C170.297 173.904 173.11 172.507 175.958 171.181C184.313 167.346 192.762 163.581 200.183 158.064C207.38 152.832 215.652 149.434 223.499 145.338C224.314 144.983 225.13 144.604 225.933 144.213C225.957 144.19 225.981 144.166 226.016 144.142C226.217 143.988 226.453 143.917 226.69 143.823C226.82 143.764 226.95 143.716 227.08 143.657C227.458 143.468 227.836 143.254 228.214 143.053C228.238 143.065 228.249 143.089 228.273 143.112C228.32 143.089 228.368 143.077 228.403 143.053C228.817 142.876 229.218 142.674 229.632 142.485C230.093 142.272 230.566 142.059 231.015 141.834C231.227 141.727 231.44 141.621 231.641 141.502C231.889 141.36 232.126 141.206 232.362 141.053C232.468 140.981 232.575 140.899 232.681 140.828C232.693 140.792 232.716 140.768 232.728 140.733C232.74 140.697 232.764 140.65 232.775 140.614C232.775 140.614 232.775 140.603 232.775 140.591C232.775 140.579 232.787 140.555 232.799 140.543C232.799 140.52 232.811 140.508 232.823 140.484C232.823 140.484 232.823 140.484 232.823 140.472C232.858 140.378 232.894 140.283 232.929 140.2C232.929 140.2 232.929 140.2 232.929 140.188C232.953 140.117 232.976 140.046 233 139.975V139.952ZM186.121 41.3613C191.911 41.0062 194.216 45.1615 193.317 49.6837C189.477 47.5883 185.636 45.4929 181.819 43.4094C181.76 43.3857 181.689 43.3502 181.63 43.3265C183.036 42.5333 184.525 41.8586 186.121 41.3613ZM176.194 47.2687C181.063 49.8258 185.932 52.3711 190.788 54.9163C188.39 57.8759 184.431 60.2199 178.995 60.4212C174.481 60.8947 169.978 60.066 165.629 58.894C168.974 55.011 172.294 50.7374 176.194 47.2687ZM161.517 54.3481C161.233 54.0639 160.891 53.8509 160.524 53.7088C160.016 53.5194 159.461 53.472 158.941 53.5786C156.199 52.158 153.091 49.5417 150.858 46.511C153.398 44.9602 159.272 42.6872 163.266 40.3906C163.431 40.509 163.597 40.6392 163.762 40.7457C163.857 40.7813 163.94 40.8286 164.022 40.876C164.022 40.876 164.034 40.876 164.046 40.876C165.759 41.7757 167.461 42.6754 169.175 43.5751C168.997 44.0013 168.82 44.4275 168.643 44.8182C167.083 48.5946 164.105 51.3056 161.517 54.3481ZM165.157 71.5848C165.015 71.6321 164.861 71.6321 164.708 71.6321C162.427 71.5019 162.202 68.5423 162.699 66.8139C164.01 68.0096 165.263 69.7261 165.169 71.5729L165.157 71.5848ZM144.181 69.442C139.549 68.8619 142.231 62.41 145.15 61.1315C149.014 59.3794 153.398 61.0368 157.215 62.2206C152.855 64.4936 149.274 68.9211 144.181 69.442ZM151.685 32.1629C156.105 29.3217 162.25 27.2145 167.225 29.8189C169.907 31.4644 170.746 34.2583 170.64 37.1824C168.336 35.9275 166.126 34.8857 164.4 34.4596C164.306 34.424 164.211 34.4004 164.117 34.3648C164.01 34.3412 163.892 34.3175 163.786 34.3057C163.739 34.3057 163.691 34.3057 163.644 34.3057C163.431 34.282 163.219 34.2465 163.018 34.2465C162.687 34.2465 162.391 34.282 162.143 34.3648C161.931 34.4359 161.73 34.5306 161.552 34.6253C161.552 34.6963 161.552 34.7674 161.552 34.8265C161.505 34.8502 161.47 34.8739 161.422 34.8976C161.422 34.8976 161.422 34.9094 161.422 34.9213C155.159 38.165 151.484 39.9289 148.234 41.4797C147.23 38.0821 147.903 34.6726 151.685 32.1392V32.1629ZM158.456 168.6C158.137 168.423 157.83 168.245 157.523 168.044C139.324 156.194 119.057 148.073 99.7241 138.365C99.5823 137.738 99.2987 137.276 98.9441 136.921C98.9441 136.566 98.956 136.211 98.9678 135.891C99.0978 133.227 99.1096 130.552 99.1096 127.888C99.2396 110.64 98.7787 93.3793 98.7787 76.1307C100.303 76.9831 101.91 77.7171 103.411 78.4984C121.941 87.7797 140.872 96.0548 159.413 105.324C159.106 126.373 158.421 147.493 158.456 168.589V168.6ZM151.319 95.2616C135.495 86.8918 118.573 80.4873 102.891 71.786C106.07 69.9511 109.213 67.9622 111.021 67.2164C120.641 61.9365 130.496 56.8933 140.328 51.9094C146.521 48.5709 145.008 49.3404 145.634 49.0681C146.982 50.9623 148.731 52.9038 150.964 54.8808C129.279 53.1642 132.541 84.1927 152.418 72.3188C151.508 73.3487 150.574 74.355 149.593 75.3139C147.738 77.3146 143.306 80.215 146.603 82.9378C149.168 84.7254 151.13 81.6474 152.796 80.0848C154.828 78.1669 156.707 76.0952 158.456 73.9169C159.083 74.8167 159.863 75.598 160.796 76.1662C164.696 78.7352 171.018 76.5806 170.864 71.419C176.324 73.7512 182.445 76.1662 188.59 75.7401C192.833 74.6036 190.8 69.1342 186.712 70.2234C181.748 69.7617 177.128 68.1043 172.531 65.9734C184.632 67.0862 192.171 63.0493 195.976 57.5918C198.092 58.6928 200.195 59.8056 202.322 60.8947C209.684 64.683 217.011 68.5186 224.314 72.3898C219.28 75.5033 214.08 78.309 208.751 80.9134C198.21 85.8974 187.74 91.0234 177.151 95.9127C173.181 97.5582 169.234 99.2275 165.346 101.062C165.062 101.193 164.743 101.335 164.412 101.477C160.123 99.2038 155.75 97.2031 151.307 95.2142L151.319 95.2616ZM226.37 137.679C223.452 139.265 220.332 140.461 217.378 141.976C212.686 144.829 207.522 146.747 202.795 149.517C197.725 152.642 193.069 156.395 187.811 159.224C181.335 162.646 174.54 165.416 168.016 168.754C167.083 169.382 165.547 170.033 164.046 170.779C164.022 167.405 164.093 164.019 164.081 160.633C164.259 142.923 164.849 125.225 164.909 107.514C165.606 107.195 166.291 106.828 166.917 106.579C170.971 104.673 175.06 102.886 179.208 101.193C193.601 94.4447 208.065 87.8034 222.116 80.3689C223.381 79.7059 224.598 78.9364 225.803 78.1669C225.933 97.8305 226.902 117.565 227.174 137.252C226.902 137.418 226.63 137.56 226.347 137.679H226.37Z" fill="black"/>
<path d="M110.761 67.3703C110.761 67.3703 110.785 67.3585 110.797 67.3466C110.88 67.2993 110.962 67.2638 111.045 67.2164C111.045 67.2164 111.033 67.2164 111.021 67.2164C110.939 67.2638 110.844 67.3111 110.761 67.3585V67.3703Z" fill="black"/>
</g>
<defs>
<clipPath id="clip0_70_2546">
<rect width="140" height="154.894" fill="white" transform="translate(93 23)"/>
</clipPath>
</defs>
</svg>
