<svg width="327" height="200" viewBox="0 0 327 200" fill="none" xmlns="http://www.w3.org/2000/svg">
<g clip-path="url(#clip0_70_2547)">
<path d="M137.03 73.53C143.62 70.57 150.4 68.02 157.31 65.91C159.38 65.28 161.5 64.68 163.66 64.79C166.23 64.92 168.63 66.04 170.92 67.2C176.96 70.24 182.81 73.65 188.42 77.41C190.08 78.52 191.76 79.72 192.74 81.44C193.77 83.26 193.89 85.43 193.96 87.52C194.41 100.78 198.36 109.96 197.22 123.18C197.03 125.36 196.7 127.79 194.98 129.18C193.9 130.06 192.46 130.34 191.09 130.6C184.21 131.89 173.03 137.28 166.14 138.57C164.46 138.88 162.74 139.2 161.06 138.9C158.99 138.53 157.22 137.29 155.45 136.16C150.93 133.28 146.01 131 140.87 129.4C136.24 127.96 130.71 126.47 129.07 121.95C128.52 120.43 128.52 118.77 128.53 117.15C128.59 108.23 128.65 99.31 128.71 90.39C128.77 82.24 128.64 77.3 137.02 73.53H137.03Z" fill="#7467FF"/>
<path d="M199.14 121.77C199.14 121.51 199.14 121.26 199.14 121C199.13 120.89 199.12 120.79 199.11 120.68C199.09 120.43 199.07 120.18 199.07 119.92C199.07 119.62 199.07 119.32 199.07 119.02C199.05 118.7 199.04 118.39 199.03 118.07C199.03 117.94 199.03 117.82 199.03 117.69C198.96 114.97 198.86 112.25 198.78 109.54C198.78 109.25 198.77 108.96 198.76 108.67C198.76 108.67 198.76 108.67 198.75 108.67C198.56 103.72 197.7 89.35 197.46 83.41C197.46 83.18 197.46 82.96 197.47 82.73C197.47 82.53 197.48 82.33 197.5 82.14C197.5 82.11 197.5 82.08 197.5 82.05C197.5 82.01 197.5 81.96 197.52 81.92C197.52 81.88 197.52 81.83 197.52 81.79V81.71C197.52 81.63 197.52 81.56 197.52 81.48C197.52 81.46 197.52 81.44 197.52 81.42C197.52 81.36 197.52 81.31 197.52 81.25C197.52 81.13 197.52 81.02 197.51 80.9C197.51 80.9 197.51 80.89 197.51 80.88C197.51 80.88 197.51 80.86 197.51 80.85C197.51 80.78 197.51 80.71 197.5 80.64C197.5 80.59 197.5 80.53 197.5 80.48C197.5 80.44 197.49 80.41 197.48 80.37C197.48 80.33 197.46 80.3 197.45 80.26C197.43 80.19 197.42 80.12 197.4 80.05C197.36 79.95 197.32 79.84 197.28 79.74C197.28 79.74 197.28 79.74 197.28 79.73C197.28 79.73 197.28 79.71 197.27 79.7C197.23 79.58 197.19 79.47 197.14 79.35C197.1 79.27 197.05 79.19 197 79.11C196.97 79.07 196.94 79.04 196.92 79C196.88 78.95 196.85 78.9 196.8 78.85C196.76 78.81 196.72 78.77 196.69 78.73C196.62 78.65 196.54 78.57 196.46 78.5C196.46 78.5 196.44 78.49 196.43 78.48C196.34 78.43 196.26 78.38 196.18 78.32C196.09 78.25 196.01 78.18 195.92 78.11C192.59 76.34 189.28 74.53 185.94 72.79C185.94 72.79 185.94 72.79 185.95 72.79C182.21 70.61 171.72 63.72 166.76 61.6C166.65 61.53 166.54 61.46 166.42 61.4C166.41 61.4 166.39 61.38 166.38 61.38C166.24 61.31 166.1 61.24 165.96 61.18C165.86 61.15 165.77 61.11 165.67 61.09C165.57 61.07 165.46 61.05 165.36 61.04C165.27 61.04 165.18 61.04 165.09 61.04C164.93 61.01 164.78 60.99 164.66 60.98C164.36 60.98 164.09 61.01 163.85 61.09C163.65 61.16 163.47 61.24 163.3 61.33C163.3 61.39 163.3 61.46 163.3 61.52C163.26 61.54 163.22 61.56 163.18 61.58C163.18 61.58 163.18 61.59 163.18 61.6C160.93 62.76 159.05 63.71 157.41 64.53C157.41 64.53 157.41 64.53 157.42 64.54C152.38 67.09 137.67 74.18 131.67 77.15C131.64 77.15 131.62 77.13 131.59 77.13C131.15 77.34 130.7 77.53 130.28 77.77C130.01 77.93 129.76 78.09 129.49 78.24C129.41 78.28 129.34 78.33 129.26 78.36C129.12 78.46 128.98 78.56 128.85 78.66C128.78 78.71 128.7 78.76 128.63 78.82C128.63 78.82 128.65 78.81 128.65 78.8C128.63 78.81 128.62 78.83 128.6 78.84C128.6 78.84 128.6 78.84 128.59 78.84C128.59 78.84 128.59 78.84 128.58 78.84C128.58 78.84 128.54 78.87 128.52 78.89C128.51 78.89 128.5 78.91 128.48 78.92C128.46 78.94 128.43 78.96 128.41 78.98C128.41 78.98 128.41 78.98 128.42 78.98C128.34 79.04 128.27 79.1 128.19 79.15C128.16 79.19 128.13 79.22 128.1 79.26C127.99 79.41 127.88 79.56 127.79 79.71C127.74 79.8 127.7 79.9 127.66 79.99C127.62 80.09 127.59 80.19 127.57 80.28C127.54 80.43 127.51 80.58 127.49 80.74C127.49 80.76 127.49 80.77 127.49 80.79C127.47 80.97 127.45 81.16 127.45 81.34C127.45 81.57 127.45 81.81 127.45 82.05C127.45 82.51 127.47 82.97 127.45 83.43C127.46 83.43 127.48 83.44 127.49 83.45C127.41 87.75 127.52 92.05 127.62 96.34C127.62 98.06 127.38 103.22 127.38 104.94C127.38 107.69 127.41 110.44 127.3 113.19C127.35 115.53 126.04 119.43 129.4 119.91C135.42 124.31 155.57 134.03 160.46 136.34C160.46 136.41 160.46 136.47 160.46 136.54C160.52 138.59 162.49 139.3 164 138.8C164.08 138.8 164.16 138.82 164.24 138.82C165.8 138.82 167.33 137.27 168.79 136.64C171.34 135.28 173.93 133.99 176.55 132.77C176.96 132.58 177.36 132.4 177.77 132.21C179.67 131.36 189.87 127.08 190.46 126.77C191.22 126.44 191.97 126.1 192.71 125.74C192.73 125.72 192.76 125.69 192.78 125.67C192.96 125.52 193.19 125.46 193.4 125.38C193.52 125.33 193.64 125.28 193.76 125.22C194.11 125.04 194.45 124.85 194.8 124.67C194.82 124.69 194.83 124.71 194.85 124.72C194.89 124.7 194.93 124.68 194.97 124.66C195.35 124.49 195.72 124.31 196.1 124.14C196.53 123.94 196.96 123.75 197.38 123.54C197.58 123.44 197.77 123.34 197.96 123.23C198.18 123.1 198.41 122.96 198.62 122.81C198.72 122.74 198.82 122.67 198.92 122.6C198.94 122.57 198.95 122.54 198.97 122.51C198.98 122.47 199 122.44 199.01 122.4C199.01 122.4 199.01 122.39 199.01 122.38C199.01 122.37 199.02 122.35 199.03 122.34C199.03 122.32 199.04 122.31 199.05 122.29C199.05 122.29 199.05 122.29 199.05 122.28C199.05 122.28 199.05 122.28 199.05 122.27C199.08 122.19 199.11 122.11 199.14 122.02C199.14 122.02 199.14 122.01 199.14 122C199.16 121.94 199.19 121.87 199.21 121.81V121.69L199.14 121.77ZM160.56 67.67C161.78 67.09 164.1 66.4 165.15 65.79C165.3 65.9 165.45 66.01 165.61 66.12C165.69 66.15 165.87 66.24 165.88 66.24C168.95 67.85 181.79 75.67 181.79 75.67C184.99 77.33 187.77 79.72 190.95 81.41C187.67 83.44 184.3 85.32 180.87 87.1C177.97 88.34 169.48 93.17 166.71 94.48C166.45 94.6 164.47 94.73 164.16 94.86C162.06 93.75 160.75 93.01 158.61 92.01C155.31 90.38 141.86 83.48 135.26 80.09C138.16 78.42 160.56 67.68 160.56 67.68V67.67ZM128.53 78.88C128.53 78.88 128.53 78.88 128.52 78.89C128.52 78.89 128.52 78.89 128.53 78.89V78.88ZM132.36 116.89C132.36 116.89 131.66 116.15 131.34 115.83C131.34 115.5 131.34 114.57 131.34 114.28C131.46 111.83 131.34 109.55 131.34 107.1C131.36 104.74 131.32 97.6 131.31 95.24C131.27 91.55 131.31 86.53 131.31 82.83C132.72 83.62 136.16 85.24 137.54 85.96C139.2 86.79 151.25 93.51 155.21 95.41C157.22 96.38 159.22 97.38 161.22 98.37C161.15 101.46 160.62 113.89 160.44 118.95C160.43 118.95 160.42 118.95 160.4 118.94C160.4 119.43 160.4 119.91 160.39 120.4C160.39 120.51 160.39 120.61 160.39 120.7C160.36 123.99 160.07 128.39 160.08 131.67C154.97 129.12 134.41 117.92 132.37 116.9L132.36 116.89ZM178.51 127.34C178.51 127.34 171.29 130.69 169.38 131.67C168.52 132.25 166.89 132.78 165.52 133.47C165.5 130.36 165.56 126.25 165.55 123.14C165.55 122.64 165.56 122.14 165.57 121.63H165.61C165.64 119.29 165.86 103.03 165.96 98.68C166.6 98.38 167.41 98.09 168 97.86C170.92 96.49 179.75 92.18 183.16 90.66C183.16 90.66 183.16 90.67 183.16 90.68C183.28 90.62 183.39 90.56 183.51 90.5C183.52 90.5 183.54 90.49 183.55 90.48C185.36 89.56 187.16 88.64 188.95 87.69C190.18 87.04 192.35 86.31 193.52 85.55C193.85 93.24 194.88 117.05 194.93 120.09C194.68 120.24 183.33 125.23 178.52 127.33L178.51 127.34Z" fill="black"/>
<path d="M175.75 75.47C174.21 72.82 171.76 71.8 169.32 72.4C169.02 70.2 166.77 68.68 164.54 68.85C162.22 69.02 161 70.6 160.76 72.51C159.08 71.82 157.23 71.67 155.29 72.41C151.57 73.82 149.99 78.41 152.39 81.71C154.54 84.67 158.2 84.88 161.15 83.47C160.04 85.23 158.54 85.57 155.88 85.52C153.96 85.48 153.96 88.46 155.88 88.5C158.71 88.56 161.17 88.97 163 86.45C163.6 85.63 164.08 84.69 164.48 83.71C164.68 84.07 164.9 84.42 165.12 84.74C166.88 87.22 169.5 88.63 172.54 88.71C174.46 88.76 174.45 85.78 172.54 85.73C170.45 85.67 168.68 84.7 167.5 82.97C167.48 82.95 167.47 82.92 167.45 82.89C169.56 84.55 172.05 85.67 174.49 84.69C177.86 83.33 177.24 78.06 175.74 75.47H175.75ZM163.9 74.41C163.65 73.63 163.52 72.77 163.79 72.3C163.94 72.04 164.37 71.82 164.69 71.81C165.25 71.78 165.64 71.87 166.01 72.16C166.13 72.25 166.26 72.43 166.31 72.52C166.3 72.53 166.38 72.83 166.39 72.77C166.4 72.96 166.39 73.15 166.37 73.34C166.35 73.54 166.38 73.73 166.46 73.9C166.43 73.93 166.39 73.95 166.35 73.98C165.81 74.45 165.33 75 164.88 75.6C164.59 75.26 164.27 74.93 163.95 74.62C163.94 74.55 163.93 74.49 163.91 74.42L163.9 74.41ZM157.68 74.9C159.97 74.7 161.8 76.3 163.08 78.08C162.21 79.26 161.25 80.33 159.94 80.91C155.6 82.85 152.12 75.39 157.68 74.9ZM169.87 80.96C168.62 80.2 167.59 79.11 166.64 77.99C168.7 75.62 171.08 73.82 173.19 76.97C175.09 79.82 173.16 82.97 169.88 80.96H169.87Z" fill="black"/>
</g>
<defs>
<clipPath id="clip0_70_2547">
<rect width="72.14" height="78.01" fill="white" transform="translate(127 61)"/>
</clipPath>
</defs>
</svg>
