<svg width="141" height="140" viewBox="0 0 141 140" fill="none" xmlns="http://www.w3.org/2000/svg">
<path d="M65.2893 47.2632C66.344 46.9295 70.4684 43.698 71.6269 43.7506C72.4914 43.7858 75.154 47.8955 75.9494 48.1414C90.7324 52.7781 100.665 60.6464 114.704 66.2666C117.557 67.4082 120.514 68.6903 122.001 70.71C123.125 72.2204 123.28 73.9768 123.401 75.6804C124.3 88.0799 124.75 100.479 124.75 112.879C124.75 113.634 124.733 114.442 124.11 115.074C123.713 115.496 123.09 115.777 122.468 116.058C109.811 121.871 96.5844 127.105 82.9252 131.689C81.1097 132.304 79.2424 132.901 77.2368 132.989C74.8334 133.094 72.5165 132.444 70.3034 131.777C52.4081 126.49 35.0661 120.291 18.4849 113.265C17.24 112.738 15.926 112.141 15.3381 111.228C14.9577 110.631 14.9231 109.946 14.9059 109.279C14.6811 101.92 14.4563 94.5607 14.2315 87.2018C14.0932 82.4949 10.3412 75.575 15.3381 73.6079C19.9891 71.7638 31.2198 63.2984 37.0466 61.3138C46.5216 58.0997 52.4867 52.0053 62.1173 49.0196L65.2893 47.2632Z" fill="#ADFF00"/>
<path d="M128.25 75.8937C116.011 63.2252 99.7787 59.4014 83.5468 49.7884C82.3612 49.0915 69.4942 45.5 69.4942 45.5C68.0471 47.4476 36.4201 62.4032 21.1123 69.9972C19.4908 70.8013 17.8868 71.2301 16.3351 71.3909L11 75.6078C11 75.6078 67.6461 103.214 70.3485 103.25C73.051 103.286 75.0037 98.8364 76.2067 97.9966C77.4097 97.1568 130.447 78.7347 127.797 76.3404L128.233 75.8937H128.25Z" fill="black" fill-opacity="0.2"/>
<path d="M131.552 107.077C131.552 106.833 131.552 106.587 131.552 106.36C131.552 106.255 131.535 106.167 131.518 106.062C131.5 105.818 131.482 105.59 131.482 105.345C131.482 105.065 131.482 104.785 131.482 104.487C131.482 104.19 131.447 103.893 131.447 103.595C131.447 103.473 131.447 103.35 131.447 103.228C131.395 103.21 131.342 103.192 131.29 103.175C131.255 102.667 131.237 102.178 131.202 101.67C131.01 93.8475 130.555 86.025 130.222 78.22C130.467 78.0625 130.73 77.905 130.975 77.7475C130.975 77.5375 130.975 77.3275 130.975 77.1175C130.975 76.925 130.975 76.75 130.992 76.5575C130.992 76.4875 130.992 76.4175 131.01 76.3475C131.01 76.2775 131.01 76.2075 131.01 76.1375C131.01 76.0675 131.01 75.9975 131.01 75.9275C131.01 75.8575 131.01 75.7875 131.01 75.7175C131.01 75.6125 131.01 75.5075 131.01 75.385C131.01 75.385 131.01 75.385 131.01 75.3675C131.01 75.3675 131.01 75.35 131.01 75.3325C131.01 75.21 131.01 75.105 130.992 74.9825C130.992 74.9475 130.992 74.9125 130.992 74.8775C130.975 74.7725 130.957 74.685 130.922 74.58C130.887 74.475 130.835 74.37 130.8 74.2825C130.765 74.16 130.712 74.0375 130.66 73.9325C130.625 73.8625 130.572 73.775 130.537 73.705C130.485 73.6175 130.415 73.5475 130.345 73.46C130.24 73.3375 130.135 73.2325 130.03 73.1275C129.96 73.0925 129.908 73.0575 129.838 73.0225C129.698 73.0225 129.557 73.075 129.417 73.11C129.347 73.04 129.277 72.9525 129.19 72.8825C129.102 72.83 129.015 72.7775 128.927 72.725C128.84 72.655 128.77 72.585 128.682 72.5325C124.342 70.2225 120.055 67.825 115.645 65.6725C106.072 60.8425 96.57 55.61 87.2075 50.5C84.075 49.205 76.8825 44.165 72.595 42.87C72.595 42.87 72.56 42.87 72.56 42.8525C72.4375 42.7825 72.2975 42.73 72.1575 42.66C72.07 42.625 71.9825 42.59 71.8775 42.5725C71.79 42.555 71.685 42.5375 71.58 42.52C71.405 42.52 71.23 42.52 71.0725 42.52C71.02 42.52 70.985 42.52 70.9325 42.52C70.845 42.555 70.775 42.5725 70.6875 42.6075C70.495 42.6075 70.32 42.625 70.1625 42.6775C69.97 42.7475 69.8125 42.8175 69.655 42.905C69.655 42.9225 69.655 42.9575 69.655 42.975C69.62 42.9925 69.585 43.01 69.55 43.0275C69.55 43.0275 69.55 43.0275 69.55 43.045C56.705 49.6775 56.4425 49.17 43.755 55.96H43.7725C33.22 61.49 22.7725 67.265 12.185 72.865C12.185 72.865 12.185 72.865 12.1675 72.865C12.0975 72.9 12.0275 72.935 11.9575 72.97C11.765 73.11 11.555 73.25 11.3625 73.39C11.3625 73.39 11.3625 73.39 11.38 73.3725C11.38 73.3725 11.345 73.39 11.3275 73.4075C11.31 73.425 11.275 73.4425 11.2575 73.46C11.2575 73.46 11.24 73.4775 11.2225 73.495C11.205 73.5125 11.17 73.53 11.1525 73.5475C11.1525 73.5475 11.1525 73.5475 11.135 73.5475C11.065 73.6 10.995 73.6525 10.925 73.705C10.89 73.74 10.8725 73.775 10.8375 73.81C10.7325 73.95 10.645 74.09 10.5575 74.23C10.505 74.3175 10.47 74.405 10.435 74.4925C10.4 74.58 10.365 74.6675 10.3475 74.7725C10.3125 74.9125 10.295 75.0525 10.2775 75.21C10.2775 75.21 10.2775 75.245 10.2775 75.2625C10.26 75.4375 10.2425 75.6125 10.2425 75.7875C10.2425 76.015 10.2425 76.225 10.2425 76.4525C10.2425 76.89 10.2425 77.3275 10.2425 77.7475C10.2425 77.7475 10.2775 77.7475 10.295 77.765C10.2075 81.3875 10.575 85.0275 10.505 88.65C10.54 92.815 10.6275 96.98 10.61 101.145C10.61 102.545 10.6275 103.945 10.54 105.345C10.575 106.465 9.48999 108.285 12.01 108.705C14.2675 111.103 18.1 111.943 20.9 113.57C31.9775 118.54 42.88 123.878 53.59 129.583C58.21 131.963 62.4275 135.06 67.03 137.458C67.03 137.86 67.03 138.245 67.03 138.648C67.1 139.82 69.13 140.188 70.565 139.838C70.565 139.838 70.565 139.838 70.5825 139.838C72.0525 139.838 73.4875 138.385 74.87 137.79C77.2675 136.512 79.7 135.305 82.1675 134.15C89.4125 130.825 96.7275 127.57 103.167 122.792C109.397 118.26 116.572 115.32 123.38 111.785C124.097 111.47 124.797 111.155 125.497 110.823C125.515 110.805 125.55 110.77 125.567 110.753C125.742 110.613 125.952 110.56 126.145 110.473C126.25 110.42 126.372 110.385 126.477 110.333C126.81 110.175 127.125 110 127.44 109.825C127.457 109.825 127.475 109.86 127.51 109.86C127.545 109.86 127.58 109.843 127.632 109.825C127.982 109.738 128.35 109.633 128.7 109.545C129.102 109.44 129.505 109.335 129.907 109.23C130.1 109.178 130.275 109.125 130.45 109.073C130.66 109.003 130.87 108.933 131.08 108.845C131.167 108.81 131.272 108.775 131.36 108.723C131.36 108.723 131.395 108.688 131.395 108.67C131.395 108.653 131.43 108.635 131.43 108.618C131.43 108.618 131.43 108.583 131.447 108.565C131.482 108.512 131.517 108.46 131.552 108.425C131.552 108.092 131.535 107.743 131.518 107.41C131.552 107.323 131.587 107.235 131.605 107.148V107.043L131.552 107.077ZM51.21 57.78C59.6275 53.2475 51.6125 57.465 60.1175 53.23C62.1825 51.9 67.4325 49.8875 71.0025 47.8575C71.1775 47.98 71.3525 48.1025 71.5275 48.225C71.615 48.26 71.685 48.295 71.755 48.3475C71.755 48.3475 71.755 48.3475 71.7725 48.3475C82.9025 54.1925 93.875 59.985 104.952 65.69C111.567 69.085 118.147 72.515 124.692 75.9975C120.387 78.6575 115.925 81.055 111.357 83.2775C102.222 87.6 93.14 92.0275 83.97 96.2625C80.5225 97.68 77.11 99.1325 73.7325 100.725C72.595 101.268 70.8625 101.828 69.76 102.668C69.515 102.668 69.27 102.72 69.06 102.773C66.19 101.338 63.285 99.99 60.3275 98.6775C45.645 90.925 29.8775 85.115 15.4925 76.75C19.15 74.965 23.595 71.9375 25.7825 71.045C34.13 66.4775 42.67 62.12 51.1925 57.7975L51.21 57.78ZM66.1025 131.507C50.3175 121.253 32.7475 114.218 15.9825 105.835C15.8775 105.345 15.6675 104.977 15.405 104.68C15.44 103.892 15.4575 103.105 15.4575 102.318C15.545 95.6675 15.2825 89.0175 15.195 82.35C16.385 82.9975 17.6275 83.5575 18.7825 84.17C34.935 92.255 51.455 99.465 67.625 107.533C67.3625 115.67 67.0125 123.825 66.9425 131.98C66.6625 131.822 66.365 131.683 66.1025 131.507ZM125.812 105.223C123.275 106.588 120.58 107.62 118.025 108.95C113.965 111.418 109.485 113.08 105.39 115.478C100.997 118.173 96.955 121.427 92.405 123.878C86.7875 126.835 80.9075 129.232 75.2375 132.12C74.4325 132.662 73.1025 133.222 71.8075 133.87C71.8075 133.048 71.825 132.242 71.8075 131.42C71.93 123.685 72.3325 115.933 72.4725 108.198C72.9975 107.69 73.33 106.973 73.33 106.255C73.9425 105.975 74.555 105.642 75.115 105.432C78.6325 103.787 82.185 102.23 85.7725 100.778C98.25 94.9325 110.78 89.1925 122.977 82.7525C123.817 82.315 124.622 81.825 125.41 81.335C125.637 89.175 126.215 97.0325 126.477 104.89C126.25 105.013 126.04 105.135 125.812 105.223Z" fill="black"/>
<path d="M26.1279 49.7525H26.1104C26.1104 49.7525 25.9529 49.84 25.8829 49.8925C25.8829 49.8925 25.9004 49.8925 25.9179 49.875C25.9879 49.84 26.0579 49.805 26.1279 49.77V49.7525Z" fill="black"/>
<path d="M13.9208 29.9104C26.5733 23.3479 40.2758 19.0779 53.9083 14.9129C57.9158 13.6879 61.9583 12.4629 66.1408 12.1129C71.1633 11.6929 76.2033 12.5329 81.2083 13.1804C92.1283 14.5804 103.153 14.9829 114.161 14.7379C117.521 14.6679 121.651 15.0004 122.998 18.0629C123.961 20.2329 122.876 22.8579 121.073 24.4154C119.271 25.9729 116.926 26.6729 114.651 27.3204C83.0458 36.2454 49.4983 41.4954 16.5808 40.9354C13.7633 40.8829 10.6308 41.2679 9.35326 38.2754C7.90076 34.8279 11.2258 31.3104 13.9033 29.9104H13.9208Z" fill="#ADFF00"/>
<path d="M126.28 19.32C126.263 19.215 126.245 19.11 126.21 19.0225C126.193 18.9 126.175 18.7775 126.14 18.6725C126.123 18.6025 126.088 18.515 126.053 18.445C126.018 18.3575 125.965 18.27 125.913 18.1825C125.843 18.06 125.755 17.9375 125.668 17.8325C125.615 17.7975 125.563 17.745 125.51 17.6925C125.458 17.6925 125.423 17.6925 125.37 17.6925C125.318 16.73 125.3 15.7675 125.248 14.7875C125.423 14.665 125.58 14.525 125.72 14.35C125.685 14.28 125.65 14.1925 125.598 14.1225C125.51 13.9125 125.405 13.72 125.318 13.51C125.248 13.335 125.16 13.1775 125.108 13.0025C125.108 13.0025 125.108 13.0025 125.108 12.985C125.09 12.7575 125.073 12.53 125.038 12.32C125.23 12.18 125.108 12.11 124.793 12.0925C124.618 10.92 123.62 9.85251 122.133 10.255C117.233 10.01 112.315 9.67751 107.398 9.60751C96.6705 9.32751 85.8555 8.64501 75.2155 8.01501C73.2555 8.12001 69.5455 7.64751 65.888 7.38501C65.398 7.33251 64.908 7.24501 64.4355 7.19251C61.5305 7.22751 58.293 6.54501 55.738 7.68251C54.0055 8.45251 54.198 8.34751 54.373 8.27751C44.5905 12.6875 34.5455 16.7475 24.693 20.825C21.403 22.6275 11.4105 25.375 8.57549 28.1925C6.72049 27.93 4.91799 30.45 6.16049 32.13C6.14299 32.1475 6.10799 32.165 6.09049 32.1825C6.38799 34.9825 6.42299 37.8525 6.98299 40.6C6.98299 40.6175 6.96549 40.635 6.94799 40.6525C6.94799 40.6525 6.94799 40.6875 6.93049 40.6875C6.93049 40.705 6.91299 40.74 6.89549 40.7575C6.91299 41.055 7.01799 41.335 7.19299 41.5975C7.19299 41.65 7.21049 41.7025 7.22799 41.755C7.24549 41.8075 7.31549 41.825 7.42049 41.8425C7.56049 41.9825 7.71799 42.105 7.92799 42.2275C10.448 43.2425 13.4755 42.84 16.223 42.77C32.708 42.0875 49.1405 40.565 65.643 39.9C65.9405 40.145 66.273 40.285 66.623 40.355C67.8305 40.565 69.2655 39.8825 70.438 39.62C73.903 38.6225 105.578 29.89 117.723 25.7425C120.488 24.7975 123.095 23.38 125.808 22.295C125.843 22.1025 125.878 21.91 125.913 21.7175C125.948 21.5425 125.983 21.3675 126.018 21.1925C126.018 21.1225 126.053 21.07 126.07 21C126.07 20.93 126.088 20.8775 126.105 20.8075C126.105 20.7375 126.123 20.6675 126.14 20.615C126.14 20.545 126.158 20.475 126.175 20.405C126.175 20.3 126.21 20.195 126.21 20.09C126.21 20.09 126.21 20.09 126.21 20.0725C126.21 19.9675 126.228 19.845 126.245 19.74C126.245 19.705 126.245 19.67 126.245 19.635C126.245 19.5475 126.245 19.4425 126.228 19.355L126.28 19.32ZM63.9805 35.7875C61.1805 35.91 58.398 36.1025 55.598 36.33C40.9855 36.6275 26.233 38.7625 11.6205 38.57C11.393 36.8375 11.3405 35.07 11.148 33.32C13.2305 33.1975 15.4005 32.69 17.378 32.655C28.5955 31.2725 39.8305 30.275 51.083 29.645C55.6505 29.33 60.218 29.68 64.768 29.4525C64.5405 31.5525 64.103 33.67 63.9805 35.7875ZM62.0905 25.1125C48.668 24.7275 30.118 27.09 16.7305 28.49C25.3755 24.78 39.148 20.3 47.723 16.52C51.2055 14.98 54.688 13.51 58.1705 11.9875C58.3105 12.075 58.4505 12.1625 58.608 12.25C58.6605 12.2675 58.6955 12.3025 58.748 12.32C58.853 12.3375 58.9405 12.355 59.0455 12.3725C59.0455 12.3725 59.063 12.3725 59.0805 12.3725C59.1155 12.3725 59.1505 12.3725 59.168 12.39C59.1855 12.39 59.203 12.39 59.2205 12.39C59.2555 12.39 59.2905 12.39 59.3255 12.4075C59.3255 12.4075 59.3255 12.4075 59.308 12.4075C59.308 12.4075 59.308 12.4075 59.3255 12.4075C59.343 12.4075 59.378 12.4075 59.3955 12.4075C59.3955 12.4075 59.378 12.4075 59.3605 12.4075C59.623 12.46 59.903 12.5125 60.1655 12.5475C60.253 12.5475 60.3405 12.5475 60.428 12.5475C72.328 13.055 109.428 13.2125 115.203 13.3C115.273 13.3 115.273 13.3875 115.203 13.405C100.958 15.47 81.078 21.63 69.5105 25.0425C69.1605 24.78 68.688 24.6225 68.093 24.6575C66.1155 24.8675 64.0855 25.095 62.0905 25.06V25.1125ZM107.1 24.4125C98.0705 27.055 73.308 33.985 69.983 34.9475C69.668 35.035 69.318 35.1225 68.9505 35.21C69.1605 33.3375 69.528 31.465 69.5805 29.5925C71.978 29.2425 74.3755 27.9825 76.6505 27.475C86.8005 24.01 97.0905 20.9125 107.468 18.165C111.738 16.975 116.165 16.4325 120.435 15.295C120.47 16.7125 120.505 18.13 120.663 19.53C116.235 21.4025 111.703 22.995 107.118 24.395L107.1 24.4125Z" fill="black"/>
<path d="M54.4255 8.26C54.4955 8.225 54.5655 8.19 54.4255 8.26V8.26Z" fill="#FD9F68"/>
<path d="M51.9404 85.82C50.6804 85.82 49.5604 84.91 49.3504 83.615C49.1229 82.18 50.0854 80.8326 51.5204 80.6051C56.1404 79.8526 59.8504 78.785 62.7029 77.4025C60.7254 74.34 59.8504 70.5601 60.5679 66.9025C61.1454 63.98 62.6504 61.8101 64.8204 60.8125C67.8829 59.3951 71.7679 60.7075 73.6754 63.805C75.0754 66.0975 75.3379 69.1601 74.3754 72.1701C73.6579 74.4276 72.4504 76.3175 70.9454 77.8925C71.0854 77.945 71.2079 77.9975 71.3479 78.05C74.9529 79.4325 79.5554 78.5925 85.0154 75.5475C85.9954 75.005 86.8704 74.4451 87.6579 73.8851C86.1179 73.2551 84.7879 72.3275 83.7554 71.12C82.1104 69.2125 81.3929 66.5351 81.7954 63.9451C82.1629 61.6526 83.3704 59.7801 85.2079 58.6776C87.5704 57.2426 90.4754 57.3825 93.0129 59.045C96.1104 61.0751 97.9304 64.8901 97.4404 68.3201C97.4404 68.3201 97.4404 68.3376 97.4404 68.3551C98.2629 67.9001 98.9804 67.34 99.5579 66.675C101.22 64.785 102.043 61.8451 102.113 57.4701C102.113 56.6826 102.113 55.8775 102.113 55.09C102.113 51.87 102.113 48.5275 103.128 45.2375C104.475 40.915 108.378 36.2775 113.768 36.26C115.43 36.26 117.093 36.855 118.475 37.8875C118.878 37.7825 119.28 37.6775 119.683 37.59C120.278 37.45 120.89 37.31 121.468 37.135C124.128 36.33 126.858 34.0725 126.91 31.36C126.945 29.9075 128.153 28.7525 129.588 28.7875C131.04 28.8225 132.195 30.0125 132.16 31.465C132.038 36.925 127.33 40.8275 123.008 42.1575C122.588 42.28 122.15 42.4026 121.713 42.5076C122.325 44.6601 121.94 46.83 120.593 48.4925C119.648 49.665 118.388 50.4175 117.04 50.5925C115.01 50.8375 113.155 49.805 112.21 47.8625C111.283 45.955 111.388 43.5576 112.385 41.7551C110.39 42.4901 108.798 44.6425 108.133 46.795C107.345 49.3325 107.345 52.115 107.363 55.0725C107.363 55.9125 107.363 56.7351 107.363 57.5751C107.293 61.1625 106.82 66.3601 103.495 70.1401C101.448 72.4676 98.4554 74.0776 95.0779 74.6376C94.8679 74.6726 94.6754 74.7076 94.4654 74.7251C92.8204 76.6851 90.5104 78.505 87.5704 80.15C80.6929 83.9825 74.6029 84.9276 69.4754 82.9675C68.3904 82.565 67.3929 82.0051 66.4654 81.3576C61.2679 84.3501 55.1429 85.3475 52.3779 85.8025C52.2379 85.82 52.0979 85.8375 51.9579 85.8375L51.9404 85.82ZM67.4454 65.4675C67.2879 65.4675 67.1479 65.5025 67.0254 65.555C66.4479 65.8175 65.9404 66.7276 65.7129 67.9C65.2754 70.1225 65.8179 72.4675 67.0079 74.3925C68.1279 73.255 68.9154 71.9776 69.3529 70.5601C69.8429 69.0201 69.7729 67.515 69.1779 66.535C68.7929 65.9051 68.0229 65.485 67.4279 65.485L67.4454 65.4675ZM88.7079 62.93C88.4454 62.93 88.1654 63 87.9029 63.1576C87.2379 63.5601 87.0279 64.3475 86.9579 64.7675C86.7829 65.8175 87.0804 66.9551 87.7104 67.6901C88.5679 68.6875 89.9854 69.335 91.6129 69.5275C91.9279 68.8801 92.1204 68.2325 92.2079 67.585C92.4179 66.15 91.4904 64.3651 90.0904 63.4201C89.7054 63.1751 89.2154 62.93 88.6904 62.93H88.7079Z" fill="#231F20"/>
</svg>
