<svg width="64" height="64" viewBox="0 0 64 64" fill="none" xmlns="http://www.w3.org/2000/svg">
<g clip-path="url(#clip0_4255_3134)">
<path d="M62.514 19.654C58.3149 28.5217 52.6815 36.4754 47.4178 44.6104C42.642 51.9448 32.2477 65.0197 30.7469 63.5921C28.2259 60.4499 24.1007 58.3123 21.565 55.1776C12.9005 43.9533 4.31003 31.9207 0.702311 17.5617C-1.10865e-05 13.9738 1.20503 12.3272 2.49138 8.79217C3.63728 6.15603 6.78664 3.90512 9.39632 3.90512C10.3944 3.90512 13.8838 6.35242 14.7709 7.16063C17.3141 9.47953 17.9499 11.6247 20.8405 17.0178C22.393 19.5784 22.9696 22.9095 24.9583 25.1C27.3684 26.9128 29.7341 24.2615 30.0002 21.633C31.841 12.2818 38.1545 3.16488 46.8559 0.490978C57.8417 -2.49262 67.8738 8.79217 62.514 19.6615V19.654Z" fill="#F2ECE6"/>
<path d="M51.0477 2.86272C40.3281 0.445633 30.4734 9.55504 26.8065 19.2158C23.4945 13.3922 18.1273 4.87948 11.1263 3.85977C6.59447 3.38391 2.37314 6.91135 0.724534 11.0431C-0.687503 15.0992 0.229212 19.586 1.27161 23.6346C5.71472 38.8698 16.6857 50.6305 26.6439 62.3005C26.7104 62.3533 26.7696 62.4138 26.8361 62.4742C26.8361 62.4742 26.8361 62.4742 26.8435 62.4893C26.8509 62.4969 26.8583 62.5044 26.8657 62.512C26.8657 62.512 26.8509 62.4969 26.8435 62.4893C26.8953 62.5422 26.947 62.6026 26.9914 62.663C27.0431 62.7008 27.0875 62.7386 27.1318 62.7763C27.1318 62.7763 27.1392 62.7839 27.1466 62.7839C27.1466 62.7839 27.1466 62.7839 27.154 62.7839C27.3019 62.9047 27.4423 63.0407 27.5902 63.1616C27.5976 63.1691 27.6124 63.1767 27.6198 63.1842C27.7676 63.3051 27.9303 63.4033 28.0929 63.509C28.0929 63.509 28.1077 63.5166 28.1151 63.5241C28.1151 63.5241 28.1151 63.5241 28.1225 63.5241C28.226 63.5845 28.3295 63.6374 28.433 63.6827C28.433 63.6827 28.4404 63.6827 28.4478 63.6827C28.4847 63.6978 28.5291 63.7205 28.566 63.7356C28.5956 63.7432 28.6252 63.7507 28.6548 63.7583C28.7287 63.7734 28.81 63.7809 28.8839 63.7809C28.8839 63.7809 28.8913 63.7809 28.8987 63.7809C29.1205 63.8867 29.3571 63.9622 29.6084 63.9622C29.8302 63.9622 30.0594 63.9169 30.2738 63.8263C30.4291 63.7583 30.5769 63.6752 30.7026 63.5619C30.8726 63.4108 31.0057 63.2673 31.1462 63.086C31.2497 62.9576 31.3384 62.799 31.4271 62.6479C31.4493 62.6328 31.4788 62.6102 31.501 62.595C31.5306 62.5724 31.5676 62.5497 31.5971 62.5271C31.6341 62.5044 31.6637 62.4817 31.7006 62.4591C31.6932 62.4591 31.6858 62.4742 31.6784 62.4817C31.7154 62.4515 31.745 62.4213 31.7819 62.4062C31.8115 62.3911 31.8337 62.376 31.8633 62.3609C31.8928 62.3382 31.9298 62.3156 31.9594 62.2929C32.2181 62.0361 32.4621 61.7642 32.6987 61.4771C33.3418 60.684 33.9481 59.8607 34.5321 59.0223C35.1235 58.1763 35.7002 57.3152 36.2694 56.4466C36.469 56.1973 36.6686 55.9632 36.8461 55.7592C41.8732 49.5881 46.4198 43.0317 50.7299 36.3243C50.959 35.9542 51.1808 35.5765 51.4026 35.1988C54.9881 30.0625 58.3593 24.7827 60.2149 18.7853C62.4771 11.7455 58.0192 4.32053 50.9886 2.83251L51.0477 2.86272ZM54.552 21.142C51.0108 28.1893 46.2572 34.519 41.8141 40.9848C37.7849 46.816 33.9924 52.8134 29.6158 58.3878C27.4867 55.8952 25.1432 53.5838 23.0066 51.0988C15.6877 42.1706 8.44268 32.6005 5.39682 21.1873C4.80539 18.3321 4.09568 15.1597 5.18243 12.3498C6.15089 10.25 8.28743 8.50512 10.4831 8.50512C11.3259 8.50512 12.1761 8.76193 12.9671 9.3511C16.9666 12.2441 19.9534 16.4588 22.393 20.7492C23.7015 22.781 24.1895 25.4323 25.8677 27.1771C27.9007 28.6198 29.8968 26.5049 30.1186 24.4201C31.6711 16.9876 37.0013 9.73632 44.3424 7.60626C53.6131 5.23449 59.069 12.4933 54.5446 21.142H54.552Z" fill="black"/>
</g>
<defs>
<clipPath id="clip0_4255_3134">
<rect width="64" height="64" fill="white"/>
</clipPath>
</defs>
</svg>
