<svg xmlns="http://www.w3.org/2000/svg" width="157" height="200" fill="none"><path fill="#231F20" d="M89.312 6.828c.186.054.213-.08.306-.16.6-.465 1.092-1.078 1.664-1.557 1.105-.932 3.581-2.835 5.099-2.396.386.107 1.21.905 1.304 1.291.466 1.917-.745 3.78-1.89 5.192-1.198 1.477-2.61 2.809-3.834 4.26l.107.213c3.447-.493 7.467.106 10.742 1.304 4.513 1.65 6.989 3.754 10.223 7.109.786.811 1.052.452 2.077.519 6.083.332 12.566 0 18.689 0 2.184 0 4.846 3.34 4.926 5.351.08 1.97.239 3.927.426 5.91 1.144 11.728 2.209 23.469 3.328 35.196 1.783 18.823 3.82 37.605 4.978 56.481.2 3.168.839 5.498-1.557 8.107-.48.519-2.53 1.904-3.182 2.023-.625.107-.665-.279-.918-.292-.253-.014-1.012.279-1.451.306-.413.026-.932 0-1.358 0-5.964-.12-11.98-.2-17.957-.32-.426 0-3.049-.04-3.182.053-1.358 4.966-3.155 9.771-5.684 14.244-.878 1.557-1.903 3.022-2.822 4.552 2.529 3.794 3.115 8.48 3.767 12.899 2.929.413 5.844.985 8.639 1.891 12.42 4.033 25.173 13.884 32.694 24.52.506.718 2.462 3.527 2.556 4.206.039.333-.094.932-.014 1.318-.08.266-.812.359-1.065.386-5.804.492-12.22-.466-18.064.106-45.565.094-91.117.52-136.683.453-.532-.266-.56-.679-.506-1.225.253-2.928 5.924-7.294 8.253-8.972 7.348-5.298 16.44-9.877 24.853-13.258 5.085-2.05 10.343-3.834 15.774-4.726.12-.119-.2-2.09-.213-2.436-.12-2.702.213-5.764 1.438-8.186-7.268-6.456-12.433-14.896-15.681-24.041-6.044-.173-12.18.186-18.21 0-2.45-.08-4.553.053-6.07-2.157-1.172-1.717-1.012-3.793-1.252-5.79-1.184-9.837-1.996-19.728-3.008-29.592C4.504 79.643 2.36 59.69.43 39.708c-.267-2.715-.932-5.498.186-8.12 1.438-3.355 5.75-6.456 9.411-6.682l17.918.066c.386-.12.758-.905 1.038-1.251C39.194 11.06 53.704 6.07 69.837 7.787c3.754.4 7.375 1.358 10.996 2.383.665-1.079 1.064-2.29 1.73-3.368C83.601 5.085 86.69.825 88.527.212c4.273-1.45 1.224 4.94.785 6.643m54.711 126.434c.199.04.253-.107.359-.213.945-.786 1.824-2.343 1.917-3.581-1.997-31.708-5.764-63.244-8.413-94.885-.785-3.634.413-9.864-4.619-10.543l-48.6-.107c-1.012.094-3.076.906-3.968 1.438-.173.107-1.384.985-1.437 1.052-.093.133-.053.173.053.266 1.052 0 2.197-.333 3.261-.373.906-.04 1.798.027 2.703 0 10.862-.28 21.751-.253 32.613-.306 3.674-.013 8.107-.44 11.728-.106 2.143.2 4.672 1.77 5.684 3.66.572 1.092.679 2.423.812 3.648.452 4.206.652 8.453 1.038 12.659 2.156 23.495 4.459 46.99 6.536 70.498.319 3.554.719 7.135.932 10.689.106 1.691.266 3.435-.213 5.085-.053.187-.453 1.052-.413 1.092M60.826 27.941c-.52-.573-1.092-1.198-1.904-1.345-2.57-.492-6.23.373-8.906-.146-13.351-.067-26.716-.133-40.08-.107-1.239.093-2.078.493-3.142 1.012-.147.067-.28-.067-.227.24 1.571.026 3.155-.027 4.726 0 14.896.253 29.844.08 44.74.625.466.014 1.93.04 2.25.133.266.067 1.69 1.172 1.89 1.438.998 1.371 1.118 4.526 1.304 6.27 2.17 20.313 3.821 40.733 5.91 61.06.44 4.34.733 8.746 1.266 13.072.013.16.12.985.252.985l1.411-2.942c-.439-.239-.572-.452-.639-.945-.346-2.835-.559-5.764-.825-8.612-2.09-21.579-3.767-43.237-6.123-64.788-.306-2.742.106-3.714-1.904-5.924m67.077-.652c-15.494.266-31.069-.107-46.537.386-2.53.08-4.872-.492-6.123 2.276-.879 1.957-.253 3.448-.053 5.445 2.475 24.653 5.018 49.28 7.574 73.919.679 6.563 1.038 13.431 1.97 19.927.785 5.458 5.87 4.34 10.023 4.407 12.873.239 25.745.319 38.617.412 2.37.014 4.899.333 7.269.12.639-.066 1.597-.852 1.916-1.411.733-1.251.666-3.141.626-4.579-.133-4.739-.839-9.571-1.251-14.323-2.037-23.163-4.193-46.311-6.337-69.46-.372-4.087-.479-8.52-1.051-12.553-.08-.6-.266-1.504-.599-1.997-1.278-1.97-3.861-2.636-6.057-2.596M5.715 29.085c-5.923.573-4.1 7.894-3.714 11.861 2.423 24.76 5.019 49.493 7.575 74.226.559 5.364.718 11.461 1.69 16.679.36 1.93 1.185 3.621 3.341 3.82h22.524c6.868 0 14.163-.306 20.979 0 .439.014.865.147 1.304.173 1.957-7.214 4.899-14.097 7.8-20.965.187-.44.4-.44.413-1.052.04-1.85-.439-4.233-.625-6.123-2.05-20.66-4.113-41.4-6.123-62.085-.32-3.275-.48-6.59-.826-9.864-.213-2.05-.2-4.646-2.183-5.818-.692-.412-1.824-.426-2.649-.466-3.168-.146-6.47.04-9.664 0-10.197-.12-20.407-.24-30.63-.306-3.008-.013-6.203-.372-9.212-.08Zm70.192 28.3c-1.011.387-1.917.893-3.008 1.092-1.105.213-2.21.12-3.261.267-1.012.133-2.263 1.57-2.862 2.33.519 6.509 1.304 12.991 1.757 19.514l2.489 26.011c.24.053.16-.027.226-.133.68-1.052 1.185-2.396 1.824-3.461.333-.559 1.198-1.93 1.704-.732.16.372-.147.905-.32 1.291-.399.852-.998 1.704-1.424 2.529-5.498 10.703-10.356 22.164-13.138 33.905.2 1.198 1.264.812 2.023.346 3.141-1.97 6.403-4.659 9.052-7.242.479-.466 2.13-2.502 2.596-2.596.745-.133 1.051.2.825.932-2.915 3.435-6.39 6.496-10.237 8.866-1.225.759-2.636 1.704-4.1 1.73-2.103.04-1.105-3.74-.985-4.992l-22.43.16c3.421 9.411 9.079 18.304 16.972 24.547 17.692 14.004 40.028 10.582 53.513-7.109 4.3-5.644 7.295-12.246 9.132-19.088-.08-.16-.2-.147-.36-.173-1.291-.147-3.008.039-4.366 0-7.694-.147-15.428-.213-23.135-.227-.426-.199-.986-.199-1.411-.359-.706-.253-.919-1.065-1.505-1.504-.266-.2-.612-.227-.718-.32-.972-.825-1.478-3.394-1.611-4.619-.16-1.438-.266-2.995-.413-4.366-2.223-20.447-4.073-40.933-6.323-61.367-.186-1.743-.293-3.487-.532-5.231m34.264 120.989s-.36-.186-.44-.186c-.399 0-2.183 1.344-2.688 1.637-2.636 1.531-5.485 2.542-8.4 3.434-.493.147-2.37.32-2.143 1.145.2.719 2.422.147 2.968 0 2.889-.772 7.228-2.622 9.611-4.406.426-.32 1.571-1.078 1.078-1.611"/><path fill="#fff" d="M110.144 178.375c.48.546-.652 1.304-1.078 1.611-2.383 1.797-6.722 3.634-9.61 4.406-.56.146-2.77.718-2.97 0-.239-.826 1.651-.999 2.144-1.145 2.915-.892 5.764-1.904 8.399-3.435.506-.292 2.29-1.65 2.689-1.637.08 0 .386.133.44.186M75.907 57.386c.24 1.73.346 3.487.533 5.231 2.25 20.434 4.1 40.92 6.323 61.367.146 1.371.253 2.928.412 4.366.147 1.225.653 3.794 1.611 4.619.107.093.453.12.719.319.586.44.799 1.252 1.504 1.505.426.146.972.159 1.411.359 7.708 0 15.442.067 23.136.226 1.357.027 3.075-.159 4.366 0 .146.014.279 0 .346.173-1.837 6.856-4.832 13.445-9.132 19.089-13.484 17.691-35.821 21.126-53.512 7.109-7.894-6.257-13.552-15.136-16.973-24.547l22.43-.16c-.12 1.238-1.131 5.032.985 4.992 1.465-.026 2.876-.972 4.1-1.73 3.847-2.383 7.322-5.431 10.237-8.866.226-.719-.08-1.065-.825-.932-.466.093-2.117 2.13-2.596 2.596-2.65 2.596-5.91 5.285-9.052 7.242-.759.479-1.81.852-2.023-.347 2.782-11.74 7.64-23.202 13.138-33.904.426-.825 1.025-1.677 1.425-2.529.173-.386.479-.906.32-1.292-.507-1.184-1.372.187-1.705.733-.639 1.065-1.158 2.422-1.823 3.461-.067.106 0 .186-.227.133l-2.49-26.011c-.452-6.523-1.237-13.006-1.756-19.515.599-.759 1.85-2.196 2.862-2.33 1.051-.146 2.156-.053 3.261-.266 1.092-.213 1.984-.705 3.009-1.091m-11.448 92.129c-.413.014-1.797.04-2.01.173-.453.267-.307 1.052.212 1.145l5.698.107c3.381.066 9.158-.346 12.22.439.546.146 2.396 1.225 2.463.013.08-1.185-3.155-1.624-3.994-1.704-.4-.04-.838.014-1.238 0-4.153-.226-9.212-.372-13.365-.173"/><path fill="#231F20" d="M64.473 149.516c4.153-.187 9.212-.054 13.365.173.413.026.839-.04 1.238 0 .838.079 4.073.519 3.993 1.703-.08 1.212-1.917.134-2.462-.013-3.075-.785-8.853-.373-12.22-.439l-5.698-.107c-.519-.093-.665-.878-.213-1.144.213-.134 1.598-.147 2.01-.173"/><path fill="#fff" d="M127.902 27.315c2.21-.04 4.792.626 6.057 2.596.319.506.506 1.41.599 1.997.572 4.033.666 8.466 1.052 12.553 2.129 23.148 4.299 46.297 6.336 69.459.413 4.753 1.118 9.585 1.251 14.324.04 1.424.107 3.328-.625 4.579-.32.559-1.278 1.344-1.917 1.411-2.37.226-4.899-.093-7.268-.12-12.873-.093-25.758-.186-38.617-.413-4.153-.079-9.239 1.052-10.024-4.406-.932-6.496-1.291-13.365-1.97-19.927-2.556-24.64-5.098-49.266-7.574-73.92-.2-1.996-.826-3.5.053-5.444 1.251-2.782 3.594-2.196 6.123-2.276 15.468-.493 31.043-.12 46.538-.386m-12.673 5.165c-11.222.053-22.563.532-33.772.28-.386 0-.665-.24-1.038 0-.373.226-.28 1.277-.253 1.716.16 3.275.799 6.71 1.145 9.97 2.49 23.988 4.805 48.002 7.574 71.95.16 1.411.12 3.328.44 4.646.053.199.386.612.572.679.532.159 2.103 0 2.782.013 12.739.399 25.545.186 38.311.306 1.491.013 3.061.24 4.566.107.945-.08 1.091-.839 1.091-1.718 0-2.808-.665-6.016-.932-8.825-2.462-25.013-4.672-50.105-7.574-75.064-.093-.746-.08-3.129-.466-3.594-.133-.16-.625-.493-.838-.52-3.861 0-7.734.014-11.608.04m-4.779 91.997c-.825.12-1.77.918-2.023 1.717-.972 3.115 4.046 6.31 6.669 4.273 1.704-1.331.759-3.794-.679-4.925-1.172-.919-2.476-1.292-3.967-1.079"/><path fill="#fff" d="M144.023 133.289s.36-.905.413-1.092c.479-1.65.319-3.394.213-5.085-.213-3.554-.626-7.148-.932-10.689-2.077-23.495-4.379-47.003-6.536-70.498-.386-4.207-.586-8.466-1.038-12.66-.133-1.224-.227-2.569-.812-3.647-1.012-1.903-3.541-3.474-5.684-3.66-3.621-.333-8.054.093-11.728.106-10.849.04-21.751.026-32.6.306-.905.027-1.797-.04-2.702 0-1.078.04-2.21.373-3.261.373-.107-.093-.147-.133-.054-.266.053-.08 1.265-.945 1.438-1.052.878-.533 2.942-1.345 3.967-1.438l48.587.107c5.032.679 3.834 6.909 4.619 10.543 2.649 31.654 6.403 63.19 8.413 94.885-.093 1.238-.972 2.795-1.917 3.58-.12.094-.173.253-.359.2"/><path fill="#231F20" d="M115.243 32.507c3.86-.014 7.734-.04 11.607-.04.213.026.706.346.826.519.372.466.372 2.848.466 3.594 2.915 24.96 5.111 50.051 7.574 75.064.279 2.809.945 6.03.932 8.825 0 .879-.133 1.638-1.092 1.718-1.504.119-3.075-.093-4.566-.107-12.765-.133-25.571.093-38.31-.306-.68-.027-2.25.133-2.783-.013-.186-.054-.519-.479-.572-.679-.306-1.318-.28-3.235-.44-4.646-2.768-23.948-5.084-47.962-7.574-71.95-.332-3.26-.971-6.695-1.144-9.97-.027-.439-.12-1.49.253-1.717.386-.226.652 0 1.038 0 11.222.253 22.55-.226 33.771-.28m12.074 9.2-.879-7.788c-.186-.253-.851 0-1.144 0-13.685.426-27.436-.213-41.12.2-.825.026-1.69.2-2.542.106l.745 7.348s.226.12.24.12h44.7v.013Zm.093 1.463-44.833-.12 8.2 77.301 44.434.359-7.801-77.54ZM110.465 124.489c1.49-.213 2.795.16 3.966 1.079 1.451 1.131 2.397 3.594.679 4.925-2.609 2.037-7.641-1.171-6.669-4.273.253-.799 1.198-1.597 2.024-1.717m.519 1.331c-.466.053-1.092.386-1.198.879-.426 1.89 3.754 4.086 4.699 2.302.812-1.517-2.037-3.354-3.488-3.181"/><path fill="#fff" d="m127.397 43.182 7.801 77.54-44.435-.359-8.2-77.3 44.834.12Zm-34.17 3.022c-.733.16-.666 1.265.079 1.331l12.566.213c2.103-.213 4.726.266 6.762 0 .426-.053.653-.426.506-.825-.226-.666-1.185-.386-1.757-.426-5.325-.333-10.836-.093-16.2-.2-.6 0-1.291-.226-1.944-.093m-.2 6.55v1.37l28.035.28v-1.371l-28.034-.28Zm.826 5.244v1.411l28.034.253v-1.411l-28.034-.253Zm.812 6.896c-.306.066-.493.332-.493.652.027.226.427.599.68.572l26.356.266c.333-.053 1.065-.08 1.119-.532.026-.32-.48-.732-.773-.772-1.424-.186-3.567.04-5.098 0-3.914-.067-7.907-.2-11.821-.213-3.314-.027-6.629 0-9.943.026m1.118 5.192-.333.186c-.173.466-.027.999.52 1.039 8.452.093 16.878.293 25.344.306.852-.16.879-1.251 0-1.358-1.424-.186-3.567.04-5.098 0-4.193-.066-8.466-.186-12.659-.213-2.583-.026-5.178 0-7.76.027m-.094 6.908v1.425l26.583.28V77.26l-26.583-.28Zm1.171 25.133c.12.106.892.333 1.065.333 5.205.146 10.53-.027 15.775 0 3.261.013 6.709.372 9.97.106.253-.013 1.291-.2 1.451-.306.319-.187.373-.652.359-.999-.093-2.901-.466-5.83-.625-8.719-.173-2.888-.094-6.083-.413-8.932a1.821 1.821 0 0 0-.626-1.145H95.422c-.572.253-.439 1.625-.412 2.184.24 4.765.878 9.997 1.45 14.749.067.599.027 2.369.453 2.715m2.037 8.134v1.477l26.996.253v-1.477l-26.996-.253Zm.852 4.765v1.465l27.089.266v-1.464l-27.089-.267ZM127.303 41.718h-44.7s-.227-.106-.24-.12l-.746-7.348c.852.094 1.717-.08 2.543-.106 13.684-.413 27.435.226 41.119-.2.28 0 .959-.266 1.145 0l.879 7.787v-.013ZM91.867 36.86c-.745.413-.373 1.265.386 1.332l23.881.213c.559-.027.759-.839.36-1.198-.347-.293-2.263-.134-2.849-.16-3.807-.133-7.708-.2-11.515-.213-3.42-.027-6.842 0-10.263.026ZM110.984 125.834c1.451-.173 4.3 1.664 3.488 3.182-.946 1.77-5.125-.413-4.699-2.303.119-.493.732-.826 1.198-.879"/><path fill="#231F20" d="M96.912 102.113c-.426-.36-.372-2.117-.452-2.716-.573-4.752-1.211-9.984-1.451-14.75-.027-.545-.16-1.916.412-2.182h28.447c.333.293.573.679.626 1.145.319 2.835.24 6.03.413 8.932.173 2.888.532 5.817.625 8.719 0 .346-.04.799-.359.998-.173.107-1.198.293-1.451.306-3.261.253-6.709-.093-9.97-.106-5.245-.027-10.57.133-15.775 0-.173 0-.945-.226-1.065-.333m26.131-18.357h-26.53l1.504 17.239h7.481c-.053-.546-.213-1.078-.306-1.624-.053-.32.04-.666-.053-.985-.146-.466-.879-.413-.892-1.398 0-.266.12-1.61.186-1.784.28-.678 1.478-.785 1.558-1.77.093-1.038-1.518-1.717-1.012-3.501.16-.546 1.105-1.93 1.544-2.29 1.877-1.544 4.14.054 5.245 1.718.226 0 1.957-2.995 2.929-3.195 1.69-.346 2.476 1.105 2.303 2.609-.2 1.677-1.584 2.516-2.064 3.754a10.702 10.702 0 0 0-.492 1.69c-.173.919-.107 1.89-.426 2.756 1.091 1.025 1.757 2.436 1.77 3.94l.147.173h7.987c.173-.106.159-.279.159-.466 0-2.236-.439-4.513-.532-6.749l-.519-10.117h.013Zm-12.979 12.713v-1.664c-.639-.466-1.344-.892-1.451-1.77-.226-2.13 3.062-2.05 3.315-.506.066.439 0 .852-.2 1.238-.08.16-.412.479-.412.519v2.183c.159.293 1.57.146 1.65.04 0-1.425.2-3.115.666-4.473.319-.918 1.224-1.717 1.65-2.609.173-.36.706-1.85-.066-1.837-.519 0-1.904 2.33-2.29 2.796-1.73 2.063-2.156-.386-3.274-1.278-1.358-1.105-2.197-.693-2.982.732-.746 1.358.16 1.398.546 2.529.465 1.358.053 2.117-.932 3.008-.173.16-.413.16-.546.386-.186.32-.12.906-.107 1.265.626.346 1.065-.333 1.718-.36.679-.04 1.677.2 2.369.067.12-.026.333-.16.36-.253m.505-3.687c-.226-.36-.971.106-.412.466.333.213.532-.253.412-.466Zm3.847 8.293c0-.759-.692-2.835-1.451-3.075-1.158.053-5.471-.346-6.229.32-.533.479-.014 2.01.106 2.635l7.574.107v.013ZM98.981 110.255l-.013 1.477 27.008.25.014-1.478-27.009-.249ZM99.786 114.98l-.014 1.464 27.101.265.014-1.464-27.101-.265ZM93.845 57.987l-.013 1.41 28.046.255.013-1.41-28.046-.255ZM94.677 64.894c3.315-.027 6.63-.054 9.944-.027 3.914.027 7.907.146 11.821.213 1.531.027 3.674-.2 5.098 0 .306.04.812.466.772.785-.04.453-.772.493-1.118.533l-26.357-.266c-.253.013-.652-.347-.679-.573 0-.32.187-.572.493-.652M95.821 70.085c2.583-.027 5.178-.053 7.761-.027 4.193.04 8.466.147 12.659.213 1.531.027 3.674-.2 5.098 0 .879.12.852 1.212 0 1.358-8.452 0-16.892-.213-25.345-.306-.532-.053-.692-.572-.519-1.052l.333-.186h.013ZM93.017 52.747l-.013 1.37 28.046.275.013-1.371-28.046-.274ZM95.77 76.996l-.014 1.424 26.595.279.015-1.425-26.595-.278ZM93.226 46.204c.652-.146 1.345.08 1.944.08 5.364.107 10.875-.12 16.2.2.572.04 1.531-.24 1.757.426.133.399-.08.772-.506.825-2.037.266-4.659-.213-6.762 0l-12.566-.2c-.746-.08-.812-1.171-.08-1.33M91.868 36.86c3.42-.014 6.842-.054 10.263-.027 3.807.027 7.707.08 11.514.213.586.013 2.516-.146 2.849.16.399.346.213 1.171-.359 1.198l-23.881-.213c-.76-.067-1.132-.919-.386-1.331Z"/><path fill="#fff" d="m123.043 83.756.519 10.117c.093 2.236.519 4.512.533 6.749 0 .186 0 .359-.16.466h-8l-.133-.173c0-1.518-.666-2.916-1.771-3.94.32-.866.253-1.85.426-2.756.107-.532.293-1.185.493-1.69.479-1.225 1.863-2.064 2.063-3.741.173-1.504-.612-2.969-2.303-2.61-.985.2-2.716 3.196-2.929 3.196-1.104-1.651-3.367-3.248-5.244-1.718-.44.36-1.398 1.744-1.544 2.29-.506 1.784 1.104 2.463 1.011 3.5-.093.973-1.291 1.093-1.557 1.771-.08.187-.2 1.518-.187 1.784.014.985.746.932.892 1.398.107.306 0 .665.054.985.079.546.252 1.078.306 1.624h-7.481l-1.505-17.239h26.53l-.013-.013Z"/><path fill="#fff" d="M110.065 96.482c-.026.107-.239.24-.359.253-.692.133-1.691-.106-2.37-.067-.652.04-1.091.706-1.717.36-.013-.36-.08-.945.107-1.265.133-.226.372-.226.545-.386.972-.892 1.385-1.65.932-3.008-.386-1.132-1.291-1.172-.546-2.53.786-1.437 1.624-1.85 2.982-.745 1.105.892 1.531 3.341 3.275 1.278.386-.466 1.784-2.795 2.289-2.795.773 0 .24 1.477.067 1.837-.426.891-1.331 1.677-1.651 2.609-.466 1.358-.665 3.048-.665 4.472-.08.094-1.491.253-1.651-.04v-2.183s.333-.359.413-.519c.213-.386.266-.798.199-1.238-.239-1.557-3.54-1.624-3.314.506.093.892.799 1.318 1.451 1.77v1.665l.013.026ZM114.431 101.101l-7.574-.107c-.12-.625-.639-2.156-.107-2.635.759-.666 5.072-.266 6.23-.32.759.227 1.438 2.317 1.451 3.075"/><path fill="#fff" d="M110.584 92.808c.133.213-.067.666-.413.466-.559-.346.187-.812.413-.466ZM5.715 29.085c3.009-.293 6.204.053 9.199.08 10.223.067 20.42.2 30.63.306 3.181.04 6.496-.146 9.664 0 .825.04 1.943.053 2.649.466 1.97 1.172 1.957 3.767 2.183 5.817.346 3.275.506 6.576.825 9.864 2.01 20.686 4.074 41.426 6.124 62.085.186 1.904.678 4.274.625 6.124-.013.612-.226.599-.412 1.051-2.902 6.869-5.844 13.751-7.801 20.966-.426-.026-.865-.146-1.291-.173-6.816-.306-14.11 0-20.98 0H14.608c-2.156-.2-2.981-1.89-3.34-3.82-.96-5.232-1.132-11.328-1.691-16.68C7.02 90.425 4.41 65.705 2 40.946c-.386-3.967-2.196-11.288 3.714-11.86Zm36.434 5.192c-11.328.066-22.763.545-34.09.28-.533 0-1.04-.387-1.292.372-.08.253-.013 1.038 0 1.344.266 4.02.932 8.134 1.344 12.154 2.57 24.813 5.112 49.612 7.814 74.412.16.759.919.759 1.584.812 3.967.279 8.52-.04 12.567 0 9.118.066 18.276.226 27.395.319 1.45.014 3.261.12 4.686 0 .612-.053.772-.12.931-.719.413-1.57-.306-4.885-.466-6.602-2.476-25.372-4.912-50.757-7.68-76.102-.187-1.664-.173-3.541-.44-5.165-.093-.56-.479-.879-.958-1.119-3.794-.026-7.588 0-11.381.027m-5.099 91.957c-1.61.266-2.423 1.797-2.023 3.314 1.065 4.034 8.24 4.699 7.52.16-.359-2.276-3.354-3.847-5.51-3.474"/><path fill="#fff" d="M60.826 27.94c2.023 2.21 1.61 3.182 1.904 5.924 2.369 21.552 4.033 43.196 6.123 64.788.28 2.848.479 5.777.825 8.612.067.493.2.719.64.946l-1.412 2.941c-.133 0-.24-.812-.253-.985-.519-4.326-.812-8.732-1.265-13.072-2.076-20.326-3.74-40.733-5.91-61.06-.186-1.744-.306-4.899-1.304-6.27-.187-.266-1.611-1.37-1.89-1.437-.333-.094-1.784-.12-2.25-.134-14.91-.545-29.845-.359-44.74-.625-1.571-.027-3.155.026-4.726 0-.053-.293.093-.16.226-.226 1.065-.52 1.904-.932 3.142-1.012 13.364-.027 26.73.027 40.08.106 2.677.52 6.337-.346 8.906.147.812.146 1.385.772 1.904 1.344"/><path fill="#231F20" d="M42.148 34.277c3.794-.027 7.588-.053 11.382-.027.492.24.865.546.958 1.118.267 1.611.253 3.515.44 5.165 2.768 25.332 5.204 50.718 7.68 76.103.16 1.704.879 5.032.466 6.602-.16.599-.333.679-.932.719-1.41.12-3.221.013-4.672 0-9.118-.093-18.277-.253-27.395-.319-4.047-.027-8.6.292-12.566 0-.653-.04-1.425-.054-1.585-.812-2.702-24.8-5.244-49.6-7.813-74.412-.413-4.007-1.092-8.12-1.345-12.154-.013-.306-.08-1.091 0-1.344.253-.759.772-.373 1.291-.373 11.329.253 22.763-.226 34.091-.28M9.11 43.476h44.647s.173-.173.16-.253c-.093-1.011-.306-2.01-.413-3.008-.133-1.198-.146-2.436-.32-3.634-.04-.293-.053-.972-.359-.999l-44.594.426.746 7.295.133.173Zm44.887 1.478-44.834-.12 8.2 77.3 44.434.36-7.8-77.54ZM37.065 126.247c2.143-.36 5.151 1.198 5.51 3.474.72 4.539-6.455 3.874-7.52-.16-.4-1.53.412-3.048 2.023-3.314m.506 1.344c-2.183.32-1.025 2.436.24 3.235 1.065.679 3.46 1.172 3.314-.719-.106-1.344-2.303-2.702-3.554-2.529"/><path fill="#fff" d="m53.996 44.953 7.8 77.54-44.447-.36-8.2-77.3 44.834.12h.013Zm-34.17 3.008c-.733.16-.666 1.252.08 1.331l12.352.213c2.197-.2 4.82.253 6.962 0 .706-.08.6-1.238-.106-1.25l-19.289-.28v-.014Zm.305 6.656c-.798.253-.798 1.118.08 1.225l26.584.32c1.105-.107 1.091-1.106.306-1.252-.56-.107-1.544.027-2.183 0-8.24-.32-16.52-.093-24.787-.293Zm.347 5.152v1.424l28.034.253v-1.424l-28.034-.253Zm.32 6.802v1.358l28.033.28V66.85l-28.034-.28Zm1.623 5.271c-.852.2-.333 1.345.386 1.331l25.132.213c.852-.16.879-1.238 0-1.357-1.424-.187-3.567.04-5.098 0-4.1-.067-8.24-.173-12.353-.107l-8.067-.08Zm-.053 7.268c-.16.293 0 .892.386.972 8.533.133 17.065.253 25.598.253.293.027.56-.32.573-.586.026-.532-.68-.639-1.092-.665-2.13-.173-4.672.04-6.856 0-3.168-.04-6.482-.187-9.65-.213-2.57-.027-5.458-.147-8-.04-.227 0-.866.093-.96.28Zm-.266 5.085c-1.065.307-.36 3.142-.28 3.98.426 4.66.612 9.625 1.251 14.217.173 1.265.2 1.704 1.598 1.824 4.845.413 10.263-.306 15.162 0 3.34 0 7.068.346 10.383.107.36-.027 1.464-.187 1.65-.426.373-.48 0-3.049-.053-3.794-.093-1.944-.2-3.887-.306-5.817-.16-2.889-.133-5.964-.413-8.826-.053-.492-.24-.918-.625-1.251l-28.367-.027v.013Zm3.847 27.928c-1.092.692-.253 1.251.705 1.331 2.849.24 6.31-.04 9.252 0 3.474.04 6.988.067 10.49.107 1.756.013 3.633.266 5.404.106 1.131-.106.918-1.251.106-1.358-1.424-.186-3.567.04-5.098 0-3.82-.066-7.694-.186-11.515-.212a537.885 537.885 0 0 0-9.331.026m.44 4.686v1.411l26.982.279v-1.411l-26.983-.279ZM9.109 43.475l-.133-.173-.746-7.294 44.594-.413c.306.013.32.706.36.985.173 1.185.186 2.436.32 3.634.106 1.012.319 2.01.412 3.008 0 .094-.107.267-.16.267H9.11v-.014Zm8.972-4.978V40l25.226.253V38.75l-25.226-.253ZM37.584 127.591c1.25-.173 3.46 1.185 3.554 2.529.146 1.891-2.25 1.398-3.315.719-1.264-.799-2.436-2.928-.24-3.235"/><path fill="#231F20" d="m22.101 84.196 28.367.026c.386.32.572.746.626 1.252.28 2.848.266 5.936.412 8.825.107 1.93.213 3.874.306 5.817.04.746.426 3.315.054 3.794-.187.24-1.291.399-1.65.426-3.316.24-7.043-.106-10.384-.106-4.899-.307-10.33.412-15.162 0-1.41-.12-1.424-.56-1.597-1.824-.64-4.606-.826-9.571-1.252-14.217-.08-.839-.785-3.674.28-3.98m2.53 18.556h7.48c-.32-.732-.16-1.93-.386-2.582-.186-.546-.878-.44-.878-1.425 0-.292.106-1.584.186-1.783.32-.772 1.944-.919 1.451-2.237-.48-1.29-1.478-1.584-.785-3.314.971-2.423 3.3-3.554 5.43-1.638l1.239 1.358c1.091-1.078 2.143-3.953 4.086-3.048.426.2 1.079.865 1.145 1.344.32 2.104-1.464 3.701-2.303 5.471-.253.533-1.198 2.902-1.131 3.342 1.224 1.264 2.316 2.755 2.183 4.619h8.2l-.998-17.345-26.624.106 1.664 17.132h.04Zm17.41-13.258c-.332-.32-.785.28-1.011.532-.652.733-1.318 2.09-1.97 2.703-1.211 1.131-2.023-1.065-2.662-1.704-.919-.906-1.93-1.118-2.783 0-.479.625-.812 1.184-.492 1.93.48 1.105 1.265 1.717.666 3.115-.293.679-1.398 1.318-1.518 1.584-.04.106-.146.985-.107 1.038.36.586.826.027 1.225-.12.919-.346 1.784-.266 2.73-.492.119-.173 0-1.358-.08-1.597-.08-.213-.467-.387-.653-.586-.386-.413-.546-.826-.466-1.411.067-.48.785-1.411 1.305-1.491 1.464-.253 2.342.652 2.103 2.103-.147.905-.826 1.025-.959 1.318-.053.12.133 1.504.32 1.557l1.185-.133c.386-1.304.865-2.556 1.397-3.807.52-1.225 1.345-2.063 1.77-3.115.16-.4.373-1.078.027-1.424m-5.684 5.55c.44.453.866-.518.386-.758-.466-.106-.692.44-.386.759Zm4.646 7.815c-.133-1.504-.945-3.288-2.596-3.581-.652-.12-3.128.226-3.873.4-.24.052-.892.252-1.092.372-.692.413-.226 2.103.04 2.729l7.521.093v-.013ZM20.484 59.784l-.013 1.424 28.046.255.013-1.425-28.046-.254ZM25.948 112.123c3.101-.027 6.216-.053 9.331-.027 3.807.027 7.694.147 11.515.213 1.53.027 3.674-.199 5.098 0 .812.107 1.025 1.252-.106 1.358-1.77.16-3.634-.093-5.392-.106-3.487-.04-7.015-.067-10.49-.107-2.94-.026-6.389.253-9.25 0-.96-.08-1.798-.639-.706-1.331ZM22.421 71.842l8.067.08c4.127-.066 8.253.04 12.353.107 1.531.026 3.674-.2 5.099 0 .878.12.852 1.211 0 1.357l-25.133-.213c-.718.014-1.238-1.131-.386-1.33ZM20.132 54.617c8.254.2 16.547-.026 24.787.293.639.027 1.624-.106 2.183 0 .785.147.798 1.145-.306 1.251l-26.584-.32c-.878-.106-.878-.97-.08-1.224ZM26.411 116.815l-.015 1.411 27.008.278.015-1.411-27.008-.278ZM20.784 66.574l-.014 1.358 28.047.284.013-1.358-28.046-.284ZM22.368 79.11c.107-.186.745-.266.959-.28 2.542-.106 5.417.014 8 .04 3.168.027 6.482.174 9.65.214 2.184.026 4.726-.187 6.856 0 .413.04 1.118.133 1.092.665-.014.267-.28.613-.573.586-8.532 0-17.065-.12-25.598-.253-.386-.066-.546-.679-.386-.972ZM19.826 47.961l19.289.28c.705.027.812 1.171.106 1.265-2.143.252-4.765-.2-6.962 0l-12.353-.2c-.745-.08-.812-1.171-.08-1.331M18.11 38.515l-.014 1.505 25.237.25.015-1.504-25.237-.25Z"/><path fill="#fff" d="m24.63 102.765-1.663-17.132 26.623-.106.998 17.345h-8.2c.134-1.864-.958-3.355-2.183-4.62-.066-.439.879-2.808 1.132-3.34.825-1.785 2.622-3.369 2.303-5.472-.067-.479-.72-1.145-1.145-1.344-1.944-.905-3.008 1.983-4.087 3.048L37.17 89.8c-2.13-1.917-4.46-.786-5.43 1.637-.693 1.73.305 2.023.785 3.328.479 1.318-1.145 1.464-1.451 2.236-.08.2-.187 1.491-.187 1.797 0 .985.692.865.879 1.411.213.653.066 1.851.373 2.583H24.67l-.04-.027Z"/><path fill="#fff" d="M42.043 89.507c.36.346.133 1.011-.027 1.424-.426 1.038-1.251 1.89-1.77 3.115-.533 1.251-1.012 2.502-1.398 3.807l-1.185.133c-.186-.053-.372-1.438-.319-1.557.133-.293.812-.413.958-1.318.253-1.451-.639-2.343-2.103-2.103-.519.093-1.238 1.011-1.304 1.49-.08.586.093.999.465 1.411.187.2.573.387.653.586.093.24.2 1.411.08 1.598-.946.226-1.81.146-2.73.492-.412.147-.864.706-1.237.12-.027-.053.066-.932.106-1.038.12-.28 1.225-.906 1.518-1.584.599-1.385-.187-2.01-.666-3.115-.32-.746.014-1.318.493-1.93.852-1.119 1.863-.906 2.782 0 .639.625 1.45 2.835 2.662 1.703.652-.612 1.318-1.97 1.97-2.702.227-.253.68-.865 1.012-.532M41.031 102.872l-7.52-.093c-.267-.626-.733-2.33-.04-2.729.186-.107.851-.306 1.09-.373.746-.16 3.222-.506 3.875-.4 1.637.293 2.462 2.077 2.595 3.581"/><path fill="#fff" d="M36.385 95.058c-.306-.32-.08-.866.386-.759.48.24.053 1.211-.386.759Z"/></svg>